STARTFONT 2.1
FONT -Adobe-New Century Schoolbook-Medium-I-Normal--14-140-75-75-P-81-ISO10646-1
SIZE 14 75 75
FONTBOUNDINGBOX 19 26 -2 -7
COMMENT $XFree86$
COMMENT ISO10646-1 extension by Markus Kuhn <mkuhn@acm.org>, 2001-03-20
COMMENT 
COMMENT +
COMMENT  Copyright 1984-1989, 1994 Adobe Systems Incorporated.
COMMENT  Copyright 1988, 1994 Digital Equipment Corporation.
COMMENT
COMMENT  Adobe is a trademark of Adobe Systems Incorporated which may be
COMMENT  registered in certain jurisdictions.
COMMENT  Permission to use these trademarks is hereby granted only in
COMMENT  association with the images described in this file.
COMMENT
COMMENT  Permission to use, copy, modify, distribute and sell this software
COMMENT  and its documentation for any purpose and without fee is hereby
COMMENT  granted, provided that the above copyright notices appear in all
COMMENT  copies and that both those copyright notices and this permission
COMMENT  notice appear in supporting documentation, and that the names of
COMMENT  Adobe Systems and Digital Equipment Corporation not be used in
COMMENT  advertising or publicity pertaining to distribution of the software
COMMENT  without specific, written prior permission.  Adobe Systems and
COMMENT  Digital Equipment Corporation make no representations about the
COMMENT  suitability of this software for any purpose.  It is provided "as
COMMENT  is" without express or implied warranty.
COMMENT -
STARTPROPERTIES 26
FOUNDRY "Adobe"
FAMILY_NAME "New Century Schoolbook"
WEIGHT_NAME "Medium"
SLANT "I"
SETWIDTH_NAME "Normal"
ADD_STYLE_NAME ""
PIXEL_SIZE 14
POINT_SIZE 140
RESOLUTION_X 75
RESOLUTION_Y 75
SPACING "P"
AVERAGE_WIDTH 81
CHARSET_REGISTRY "ISO10646"
CHARSET_ENCODING "1"
CAP_HEIGHT 11
X_HEIGHT 7
FONT_ASCENT 13
FONT_DESCENT 3
FACE_NAME "New Century Schoolbook Italic"
COPYRIGHT "Copyright (c) 1984, 1987 Adobe Systems Incorporated. All Rights Reserved. Copyright (c) 1988, 1991 Digital Equipment Corporation. All Rights Reserved."

STARTCHAR char0
ENCODING 0
SWIDTH 833 0
DWIDTH 11 0
BBX 9 11 0 0
BITMAP
AA80
0000
8080
0000
8080
0000
8080
0000
8080
0000
AA80
ENDCHAR
STARTCHAR space
ENCODING 32
SWIDTH 278 0
DWIDTH 3 0
BBX 1 1 0 0
BITMAP
00
ENDCHAR
STARTCHAR exclam
ENCODING 33
SWIDTH 333 0
DWIDTH 5 0
BBX 3 11 1 0
BITMAP
20
20
20
20
40
40
40
40
00
80
80
ENDCHAR
STARTCHAR quotedbl
ENCODING 34
SWIDTH 400 0
DWIDTH 6 0
BBX 4 4 1 7
BITMAP
50
50
A0
A0
ENDCHAR
STARTCHAR numbersign
ENCODING 35
SWIDTH 606 0
DWIDTH 11 0
BBX 10 10 0 0
BITMAP
0900
0900
0900
7FC0
1200
1200
FF80
2400
2400
2400
ENDCHAR
STARTCHAR dollar
ENCODING 36
SWIDTH 556 0
DWIDTH 8 0
BBX 7 13 0 -1
BITMAP
04
1C
2A
4A
50
50
38
14
14
A4
A8
70
20
ENDCHAR
STARTCHAR percent
ENCODING 37
SWIDTH 833 0
DWIDTH 12 0
BBX 11 11 0 0
BITMAP
3F00
4900
8A00
8A00
9400
64C0
0920
0A20
1220
1240
2180
ENDCHAR
STARTCHAR ampersand
ENCODING 38
SWIDTH 852 0
DWIDTH 11 0
BBX 10 11 0 0
BITMAP
0C00
1200
2200
2400
1800
31C0
5080
8900
8600
8440
7B80
ENDCHAR
STARTCHAR quotesingle
ENCODING 39
SWIDTH 278 0
DWIDTH 4 0
BBX 1 4 1 7
BITMAP
80
80
80
80
ENDCHAR
STARTCHAR parenleft
ENCODING 40
SWIDTH 333 0
DWIDTH 5 0
BBX 4 13 0 -2
BITMAP
10
20
20
40
40
80
80
80
80
80
40
40
20
ENDCHAR
STARTCHAR parenright
ENCODING 41
SWIDTH 333 0
DWIDTH 5 0
BBX 4 13 0 -2
BITMAP
40
20
20
10
10
10
10
10
20
20
40
40
80
ENDCHAR
STARTCHAR asterisk
ENCODING 42
SWIDTH 500 0
DWIDTH 6 0
BBX 5 5 0 6
BITMAP
10
A8
70
A8
40
ENDCHAR
STARTCHAR plus
ENCODING 43
SWIDTH 606 0
DWIDTH 8 0
BBX 7 7 0 1
BITMAP
10
10
10
FE
10
10
10
ENDCHAR
STARTCHAR comma
ENCODING 44
SWIDTH 278 0
DWIDTH 4 0
BBX 3 4 -1 -2
BITMAP
60
20
40
80
ENDCHAR
STARTCHAR hyphen
ENCODING 45
SWIDTH 333 0
DWIDTH 4 0
BBX 3 1 0 4
BITMAP
E0
ENDCHAR
STARTCHAR period
ENCODING 46
SWIDTH 278 0
DWIDTH 4 0
BBX 1 2 1 0
BITMAP
80
80
ENDCHAR
STARTCHAR slash
ENCODING 47
SWIDTH 606 0
DWIDTH 9 0
BBX 4 12 2 -1
BITMAP
10
10
10
20
20
20
40
40
40
80
80
80
ENDCHAR
STARTCHAR zero
ENCODING 48
SWIDTH 556 0
DWIDTH 8 0
BBX 7 11 0 0
BITMAP
1C
22
42
42
42
84
84
84
84
88
70
ENDCHAR
STARTCHAR one
ENCODING 49
SWIDTH 556 0
DWIDTH 8 0
BBX 5 11 0 0
BITMAP
08
18
68
08
10
10
10
10
20
20
F8
ENDCHAR
STARTCHAR two
ENCODING 50
SWIDTH 556 0
DWIDTH 8 0
BBX 7 11 0 0
BITMAP
1C
22
42
62
04
08
10
20
42
84
FC
ENDCHAR
STARTCHAR three
ENCODING 51
SWIDTH 556 0
DWIDTH 8 0
BBX 7 11 0 0
BITMAP
1C
22
62
02
04
18
04
04
C4
88
70
ENDCHAR
STARTCHAR four
ENCODING 52
SWIDTH 556 0
DWIDTH 8 0
BBX 7 11 0 0
BITMAP
02
06
0A
12
24
44
84
FE
08
08
3E
ENDCHAR
STARTCHAR five
ENCODING 53
SWIDTH 556 0
DWIDTH 8 0
BBX 7 11 0 0
BITMAP
3E
20
20
40
78
44
04
04
C4
88
70
ENDCHAR
STARTCHAR six
ENCODING 54
SWIDTH 556 0
DWIDTH 8 0
BBX 7 11 0 0
BITMAP
1C
22
46
40
B8
C4
84
84
84
88
70
ENDCHAR
STARTCHAR seven
ENCODING 55
SWIDTH 556 0
DWIDTH 8 0
BBX 7 11 0 0
BITMAP
FE
82
84
04
08
08
10
10
20
20
20
ENDCHAR
STARTCHAR eight
ENCODING 56
SWIDTH 556 0
DWIDTH 8 0
BBX 7 11 0 0
BITMAP
1C
22
42
42
24
38
48
84
84
88
70
ENDCHAR
STARTCHAR nine
ENCODING 57
SWIDTH 556 0
DWIDTH 8 0
BBX 7 11 0 0
BITMAP
1C
22
42
42
42
46
3A
04
C4
88
70
ENDCHAR
STARTCHAR colon
ENCODING 58
SWIDTH 278 0
DWIDTH 4 0
BBX 2 7 1 0
BITMAP
40
40
00
00
00
80
80
ENDCHAR
STARTCHAR semicolon
ENCODING 59
SWIDTH 278 0
DWIDTH 4 0
BBX 4 9 -1 -2
BITMAP
10
10
00
00
00
60
20
40
80
ENDCHAR
STARTCHAR less
ENCODING 60
SWIDTH 606 0
DWIDTH 9 0
BBX 8 7 0 1
BITMAP
03
0C
30
C0
30
0C
03
ENDCHAR
STARTCHAR equal
ENCODING 61
SWIDTH 606 0
DWIDTH 8 0
BBX 7 4 0 2
BITMAP
FE
00
00
FE
ENDCHAR
STARTCHAR greater
ENCODING 62
SWIDTH 606 0
DWIDTH 9 0
BBX 8 7 0 1
BITMAP
C0
30
0C
03
0C
30
C0
ENDCHAR
STARTCHAR question
ENCODING 63
SWIDTH 444 0
DWIDTH 6 0
BBX 5 11 1 0
BITMAP
70
88
88
10
20
40
80
C0
00
80
80
ENDCHAR
STARTCHAR at
ENCODING 64
SWIDTH 747 0
DWIDTH 12 0
BBX 11 11 0 0
BITMAP
0F80
3040
4020
4F20
9120
A220
A240
A680
9B00
4040
3F80
ENDCHAR
STARTCHAR A
ENCODING 65
SWIDTH 704 0
DWIDTH 11 0
BBX 10 11 0 0
BITMAP
0400
0600
0A00
0A00
1300
1100
2100
3F80
4080
4080
E1C0
ENDCHAR
STARTCHAR B
ENCODING 66
SWIDTH 722 0
DWIDTH 9 0
BBX 8 11 0 0
BITMAP
7E
21
21
21
22
3C
42
41
41
42
FC
ENDCHAR
STARTCHAR C
ENCODING 67
SWIDTH 722 0
DWIDTH 10 0
BBX 9 11 0 0
BITMAP
1E80
2180
4080
4000
8000
8000
8000
8000
8100
4200
3C00
ENDCHAR
STARTCHAR D
ENCODING 68
SWIDTH 778 0
DWIDTH 11 0
BBX 10 11 0 0
BITMAP
7F00
2080
2040
2040
2040
2040
4040
4080
4080
4100
FE00
ENDCHAR
STARTCHAR E
ENCODING 69
SWIDTH 722 0
DWIDTH 9 0
BBX 8 11 0 0
BITMAP
7F
21
21
20
24
3C
44
40
41
41
FF
ENDCHAR
STARTCHAR F
ENCODING 70
SWIDTH 667 0
DWIDTH 8 0
BBX 8 11 0 0
BITMAP
7F
21
21
20
24
3C
44
40
40
40
E0
ENDCHAR
STARTCHAR G
ENCODING 71
SWIDTH 778 0
DWIDTH 10 0
BBX 9 11 0 0
BITMAP
1E80
2180
4080
4000
8000
8000
8380
8100
8100
4300
3D00
ENDCHAR
STARTCHAR H
ENCODING 72
SWIDTH 833 0
DWIDTH 11 0
BBX 10 11 0 0
BITMAP
71C0
2080
2080
2080
2080
3F00
4100
4100
4100
4100
E380
ENDCHAR
STARTCHAR I
ENCODING 73
SWIDTH 407 0
DWIDTH 7 0
BBX 4 11 1 0
BITMAP
70
20
20
20
20
20
40
40
40
40
E0
ENDCHAR
STARTCHAR J
ENCODING 74
SWIDTH 611 0
DWIDTH 8 0
BBX 7 11 0 0
BITMAP
0E
04
04
04
04
04
08
C8
88
88
70
ENDCHAR
STARTCHAR K
ENCODING 75
SWIDTH 741 0
DWIDTH 10 0
BBX 9 11 0 0
BITMAP
7380
2100
2200
2400
2800
3800
4C00
4400
4600
4200
E700
ENDCHAR
STARTCHAR L
ENCODING 76
SWIDTH 667 0
DWIDTH 9 0
BBX 8 11 0 0
BITMAP
70
20
20
20
20
20
40
40
41
41
FF
ENDCHAR
STARTCHAR M
ENCODING 77
SWIDTH 944 0
DWIDTH 14 0
BBX 13 11 0 0
BITMAP
7038
3030
3850
2850
2890
2C90
4520
4520
4620
4220
E270
ENDCHAR
STARTCHAR N
ENCODING 78
SWIDTH 815 0
DWIDTH 12 0
BBX 11 11 0 0
BITMAP
70E0
3040
3840
2840
2C40
2480
4680
4280
4380
4180
E080
ENDCHAR
STARTCHAR O
ENCODING 79
SWIDTH 778 0
DWIDTH 10 0
BBX 9 11 0 0
BITMAP
1E00
2100
4080
4080
8080
8080
8080
8100
8100
4200
3C00
ENDCHAR
STARTCHAR P
ENCODING 80
SWIDTH 667 0
DWIDTH 10 0
BBX 9 11 0 0
BITMAP
7F00
2080
2080
2080
2100
3E00
4000
4000
4000
4000
E000
ENDCHAR
STARTCHAR Q
ENCODING 81
SWIDTH 778 0
DWIDTH 10 0
BBX 9 13 0 -2
BITMAP
1E00
2100
4080
4080
8080
8080
8080
B900
C500
4600
3C00
0480
0300
ENDCHAR
STARTCHAR R
ENCODING 82
SWIDTH 741 0
DWIDTH 11 0
BBX 9 11 0 0
BITMAP
7E00
2100
2100
2100
2200
3C00
4400
4200
4200
4280
E100
ENDCHAR
STARTCHAR S
ENCODING 83
SWIDTH 667 0
DWIDTH 10 0
BBX 9 11 0 0
BITMAP
1E80
2180
4080
6000
3800
0E00
0300
0100
8100
C200
BC00
ENDCHAR
STARTCHAR T
ENCODING 84
SWIDTH 685 0
DWIDTH 10 0
BBX 9 11 0 0
BITMAP
FF80
8880
8880
0800
0800
0800
1000
1000
1000
1000
3800
ENDCHAR
STARTCHAR U
ENCODING 85
SWIDTH 815 0
DWIDTH 12 0
BBX 10 11 1 0
BITMAP
E1C0
4080
4080
4080
4080
8100
8100
8100
8100
4200
3C00
ENDCHAR
STARTCHAR V
ENCODING 86
SWIDTH 704 0
DWIDTH 10 0
BBX 10 11 0 0
BITMAP
E1C0
4080
4080
6100
2100
2200
3200
1400
1400
1800
1800
ENDCHAR
STARTCHAR W
ENCODING 87
SWIDTH 926 0
DWIDTH 13 0
BBX 13 11 0 0
BITMAP
E738
4210
4210
6310
2520
2520
2940
39C0
1080
1080
1080
ENDCHAR
STARTCHAR X
ENCODING 88
SWIDTH 704 0
DWIDTH 10 0
BBX 11 11 -1 0
BITMAP
38E0
1840
0880
0D00
0600
0400
0E00
1200
2300
4100
E380
ENDCHAR
STARTCHAR Y
ENCODING 89
SWIDTH 685 0
DWIDTH 9 0
BBX 9 11 0 0
BITMAP
E380
4100
6200
2400
3800
1000
1000
2000
2000
2000
7000
ENDCHAR
STARTCHAR Z
ENCODING 90
SWIDTH 667 0
DWIDTH 10 0
BBX 9 11 0 0
BITMAP
7F80
4100
4200
0400
0800
0800
1000
2000
4100
8100
FF00
ENDCHAR
STARTCHAR bracketleft
ENCODING 91
SWIDTH 333 0
DWIDTH 6 0
BBX 6 13 0 -2
BITMAP
1C
10
10
20
20
20
20
40
40
40
80
80
E0
ENDCHAR
STARTCHAR backslash
ENCODING 92
SWIDTH 606 0
DWIDTH 8 0
BBX 6 11 1 0
BITMAP
80
80
40
40
20
20
10
10
08
08
04
ENDCHAR
STARTCHAR bracketright
ENCODING 93
SWIDTH 333 0
DWIDTH 6 0
BBX 6 13 -1 -2
BITMAP
1C
04
04
08
08
08
10
10
10
10
20
20
E0
ENDCHAR
STARTCHAR asciicircum
ENCODING 94
SWIDTH 606 0
DWIDTH 6 0
BBX 5 6 0 5
BITMAP
20
20
50
50
88
88
ENDCHAR
STARTCHAR underscore
ENCODING 95
SWIDTH 500 0
DWIDTH 7 0
BBX 7 1 0 -2
BITMAP
FE
ENDCHAR
STARTCHAR grave
ENCODING 96
SWIDTH 333 0
DWIDTH 4 0
BBX 3 3 0 8
BITMAP
80
40
20
ENDCHAR
STARTCHAR a
ENCODING 97
SWIDTH 574 0
DWIDTH 9 0
BBX 8 7 0 0
BITMAP
3A
46
82
84
84
8D
76
ENDCHAR
STARTCHAR b
ENCODING 98
SWIDTH 556 0
DWIDTH 7 0
BBX 6 11 0 0
BITMAP
60
20
20
40
58
64
44
84
84
88
70
ENDCHAR
STARTCHAR c
ENCODING 99
SWIDTH 444 0
DWIDTH 6 0
BBX 5 7 0 0
BITMAP
38
48
80
80
80
88
70
ENDCHAR
STARTCHAR d
ENCODING 100
SWIDTH 611 0
DWIDTH 9 0
BBX 8 11 0 0
BITMAP
03
01
01
02
3A
46
82
84
84
8D
76
ENDCHAR
STARTCHAR e
ENCODING 101
SWIDTH 444 0
DWIDTH 6 0
BBX 5 7 0 0
BITMAP
38
48
90
E0
80
88
70
ENDCHAR
STARTCHAR f
ENCODING 102
SWIDTH 333 0
DWIDTH 5 0
BBX 5 14 0 -3
BITMAP
18
28
20
20
F8
40
40
40
40
80
80
80
80
80
ENDCHAR
STARTCHAR g
ENCODING 103
SWIDTH 537 0
DWIDTH 7 0
BBX 9 11 -2 -3
BITMAP
0180
0E00
1100
2100
2200
1C00
2000
3C00
4200
8200
7C00
ENDCHAR
STARTCHAR h
ENCODING 104
SWIDTH 611 0
DWIDTH 9 0
BBX 8 11 0 0
BITMAP
60
20
20
20
4C
52
62
42
84
85
86
ENDCHAR
STARTCHAR i
ENCODING 105
SWIDTH 333 0
DWIDTH 4 0
BBX 3 11 0 0
BITMAP
20
20
00
00
C0
40
40
80
80
A0
C0
ENDCHAR
STARTCHAR j
ENCODING 106
SWIDTH 315 0
DWIDTH 4 0
BBX 5 14 -2 -3
BITMAP
08
08
00
00
30
10
10
10
10
20
20
20
A0
C0
ENDCHAR
STARTCHAR k
ENCODING 107
SWIDTH 556 0
DWIDTH 8 0
BBX 7 11 0 0
BITMAP
60
20
20
20
4C
52
64
58
90
92
8C
ENDCHAR
STARTCHAR l
ENCODING 108
SWIDTH 333 0
DWIDTH 4 0
BBX 3 11 0 0
BITMAP
60
20
20
20
40
40
40
80
80
A0
C0
ENDCHAR
STARTCHAR m
ENCODING 109
SWIDTH 889 0
DWIDTH 14 0
BBX 13 7 0 0
BITMAP
CC60
5290
6310
4210
8420
8428
8430
ENDCHAR
STARTCHAR n
ENCODING 110
SWIDTH 611 0
DWIDTH 9 0
BBX 8 7 0 0
BITMAP
CC
52
62
42
84
85
86
ENDCHAR
STARTCHAR o
ENCODING 111
SWIDTH 500 0
DWIDTH 7 0
BBX 6 7 0 0
BITMAP
38
44
84
84
84
88
70
ENDCHAR
STARTCHAR p
ENCODING 112
SWIDTH 574 0
DWIDTH 7 0
BBX 8 10 -2 -3
BITMAP
36
19
11
21
21
32
2C
40
40
E0
ENDCHAR
STARTCHAR q
ENCODING 113
SWIDTH 556 0
DWIDTH 8 0
BBX 7 10 0 -3
BITMAP
3A
46
82
84
84
8C
74
08
08
1C
ENDCHAR
STARTCHAR r
ENCODING 114
SWIDTH 444 0
DWIDTH 7 0
BBX 6 7 0 0
BITMAP
CC
54
60
40
80
80
80
ENDCHAR
STARTCHAR s
ENCODING 115
SWIDTH 444 0
DWIDTH 7 0
BBX 6 7 0 0
BITMAP
3C
44
40
30
08
88
F0
ENDCHAR
STARTCHAR t
ENCODING 116
SWIDTH 352 0
DWIDTH 5 0
BBX 5 9 0 0
BITMAP
20
20
F8
40
40
40
80
A0
C0
ENDCHAR
STARTCHAR u
ENCODING 117
SWIDTH 611 0
DWIDTH 9 0
BBX 8 7 0 0
BITMAP
C2
42
42
84
8C
95
66
ENDCHAR
STARTCHAR v
ENCODING 118
SWIDTH 519 0
DWIDTH 7 0
BBX 6 7 0 0
BITMAP
CC
44
44
84
88
90
60
ENDCHAR
STARTCHAR w
ENCODING 119
SWIDTH 778 0
DWIDTH 11 0
BBX 10 7 0 0
BITMAP
C4C0
4440
4440
8840
8880
9900
6600
ENDCHAR
STARTCHAR x
ENCODING 120
SWIDTH 500 0
DWIDTH 8 0
BBX 9 7 -1 0
BITMAP
3180
1200
0C00
0800
1800
2800
C600
ENDCHAR
STARTCHAR y
ENCODING 121
SWIDTH 500 0
DWIDTH 7 0
BBX 7 10 -1 -3
BITMAP
C6
42
64
24
28
30
10
20
A0
C0
ENDCHAR
STARTCHAR z
ENCODING 122
SWIDTH 463 0
DWIDTH 8 0
BBX 7 7 0 0
BITMAP
72
4C
08
10
20
44
BC
ENDCHAR
STARTCHAR braceleft
ENCODING 123
SWIDTH 333 0
DWIDTH 6 0
BBX 6 13 0 -2
BITMAP
0C
10
10
10
20
C0
20
20
20
40
40
40
30
ENDCHAR
STARTCHAR bar
ENCODING 124
SWIDTH 606 0
DWIDTH 8 0
BBX 1 11 3 0
BITMAP
80
80
80
80
80
80
80
80
80
80
80
ENDCHAR
STARTCHAR braceright
ENCODING 125
SWIDTH 333 0
DWIDTH 6 0
BBX 6 13 -1 -2
BITMAP
30
08
08
10
10
0C
10
10
10
20
20
20
C0
ENDCHAR
STARTCHAR asciitilde
ENCODING 126
SWIDTH 606 0
DWIDTH 9 0
BBX 8 2 0 4
BITMAP
71
8E
ENDCHAR
STARTCHAR space
ENCODING 160
SWIDTH 278 0
DWIDTH 3 0
BBX 1 1 0 0
BITMAP
00
ENDCHAR
STARTCHAR exclamdown
ENCODING 161
SWIDTH 333 0
DWIDTH 4 0
BBX 3 11 0 -3
BITMAP
20
20
00
40
40
40
40
80
80
80
80
ENDCHAR
STARTCHAR cent
ENCODING 162
SWIDTH 556 0
DWIDTH 8 0
BBX 7 11 0 -2
BITMAP
04
04
3E
4A
90
90
90
A4
78
20
20
ENDCHAR
STARTCHAR sterling
ENCODING 163
SWIDTH 556 0
DWIDTH 9 0
BBX 8 11 0 0
BITMAP
06
09
13
10
10
7C
10
10
60
B1
CE
ENDCHAR
STARTCHAR currency
ENCODING 164
SWIDTH 606 0
DWIDTH 8 0
BBX 7 7 0 2
BITMAP
BA
44
82
82
82
44
BA
ENDCHAR
STARTCHAR yen
ENCODING 165
SWIDTH 556 0
DWIDTH 9 0
BBX 9 11 0 0
BITMAP
E380
4100
4200
2400
2800
FE00
1000
FC00
2000
2000
7000
ENDCHAR
STARTCHAR brokenbar
ENCODING 166
SWIDTH 606 0
DWIDTH 8 0
BBX 1 11 3 0
BITMAP
80
80
80
80
00
00
80
80
80
80
80
ENDCHAR
STARTCHAR section
ENCODING 167
SWIDTH 500 0
DWIDTH 7 0
BBX 6 13 0 -2
BITMAP
38
44
4C
20
50
88
84
44
28
10
C8
88
70
ENDCHAR
STARTCHAR dieresis
ENCODING 168
SWIDTH 333 0
DWIDTH 7 0
BBX 4 2 1 8
BITMAP
90
90
ENDCHAR
STARTCHAR copyright
ENCODING 169
SWIDTH 747 0
DWIDTH 13 0
BBX 12 11 0 0
BITMAP
0F00
30C0
4F20
5120
9010
9010
9110
4E20
4020
30C0
0F00
ENDCHAR
STARTCHAR ordfeminine
ENCODING 170
SWIDTH 422 0
DWIDTH 6 0
BBX 5 7 0 4
BITMAP
38
48
90
90
68
00
F8
ENDCHAR
STARTCHAR guillemotleft
ENCODING 171
SWIDTH 426 0
DWIDTH 8 0
BBX 7 6 0 1
BITMAP
12
24
48
90
48
24
ENDCHAR
STARTCHAR logicalnot
ENCODING 172
SWIDTH 606 0
DWIDTH 8 0
BBX 7 4 0 2
BITMAP
FE
02
02
02
ENDCHAR
STARTCHAR hyphen
ENCODING 173
SWIDTH 333 0
DWIDTH 4 0
BBX 3 1 0 4
BITMAP
E0
ENDCHAR
STARTCHAR registered
ENCODING 174
SWIDTH 747 0
DWIDTH 13 0
BBX 12 11 0 0
BITMAP
0F00
30C0
5E20
4920
8910
8E10
8910
59A0
4020
30C0
0F00
ENDCHAR
STARTCHAR macron
ENCODING 175
SWIDTH 333 0
DWIDTH 6 0
BBX 5 1 0 8
BITMAP
F8
ENDCHAR
STARTCHAR degree
ENCODING 176
SWIDTH 400 0
DWIDTH 6 0
BBX 4 4 1 7
BITMAP
60
90
90
60
ENDCHAR
STARTCHAR plusminus
ENCODING 177
SWIDTH 606 0
DWIDTH 8 0
BBX 7 7 0 1
BITMAP
10
10
FE
10
10
00
FE
ENDCHAR
STARTCHAR twosuperior
ENCODING 178
SWIDTH 333 0
DWIDTH 5 0
BBX 4 6 0 5
BITMAP
70
90
20
40
80
F0
ENDCHAR
STARTCHAR threesuperior
ENCODING 179
SWIDTH 333 0
DWIDTH 5 0
BBX 4 6 0 5
BITMAP
70
90
20
10
90
E0
ENDCHAR
STARTCHAR acute
ENCODING 180
SWIDTH 333 0
DWIDTH 4 0
BBX 3 3 0 8
BITMAP
20
40
80
ENDCHAR
STARTCHAR mu
ENCODING 181
SWIDTH 611 0
DWIDTH 9 0
BBX 9 10 -1 -3
BITMAP
6100
2100
2100
4200
4600
4A80
B300
8000
8000
C000
ENDCHAR
STARTCHAR paragraph
ENCODING 182
SWIDTH 650 0
DWIDTH 9 0
BBX 8 11 0 0
BITMAP
3F
6A
CA
8A
CA
7A
14
14
14
14
3E
ENDCHAR
STARTCHAR periodcentered
ENCODING 183
SWIDTH 278 0
DWIDTH 5 0
BBX 2 2 1 4
BITMAP
C0
C0
ENDCHAR
STARTCHAR cedilla
ENCODING 184
SWIDTH 333 0
DWIDTH 5 0
BBX 3 3 0 -3
BITMAP
40
20
C0
ENDCHAR
STARTCHAR onesuperior
ENCODING 185
SWIDTH 333 0
DWIDTH 5 0
BBX 3 6 0 5
BITMAP
20
60
20
40
40
E0
ENDCHAR
STARTCHAR ordmasculine
ENCODING 186
SWIDTH 372 0
DWIDTH 6 0
BBX 5 7 0 4
BITMAP
30
48
88
90
60
00
F8
ENDCHAR
STARTCHAR guillemotright
ENCODING 187
SWIDTH 426 0
DWIDTH 8 0
BBX 7 6 0 1
BITMAP
48
24
12
24
48
90
ENDCHAR
STARTCHAR onequarter
ENCODING 188
SWIDTH 834 0
DWIDTH 12 0
BBX 10 11 0 0
BITMAP
2100
6100
2200
4200
4400
E480
0980
1280
1480
27C0
2100
ENDCHAR
STARTCHAR onehalf
ENCODING 189
SWIDTH 834 0
DWIDTH 12 0
BBX 10 11 0 0
BITMAP
2100
6100
2200
4200
4400
E5C0
0A40
1080
1100
2200
23C0
ENDCHAR
STARTCHAR threequarters
ENCODING 190
SWIDTH 834 0
DWIDTH 12 0
BBX 10 11 0 0
BITMAP
7100
9100
2200
1200
9400
E480
0980
1280
1480
27C0
2100
ENDCHAR
STARTCHAR questiondown
ENCODING 191
SWIDTH 444 0
DWIDTH 6 0
BBX 5 11 -1 -3
BITMAP
08
08
00
18
08
10
20
40
88
88
70
ENDCHAR
STARTCHAR Agrave
ENCODING 192
SWIDTH 704 0
DWIDTH 11 0
BBX 10 14 0 0
BITMAP
1800
0400
0000
0400
0600
0A00
0A00
1300
1100
2100
3F80
4080
4080
E1C0
ENDCHAR
STARTCHAR Aacute
ENCODING 193
SWIDTH 704 0
DWIDTH 11 0
BBX 10 14 0 0
BITMAP
0300
0400
0000
0400
0600
0A00
0A00
1300
1100
2100
3F80
4080
4080
E1C0
ENDCHAR
STARTCHAR Acircumflex
ENCODING 194
SWIDTH 704 0
DWIDTH 11 0
BBX 10 14 0 0
BITMAP
0600
0900
0000
0400
0600
0A00
0A00
1300
1100
2100
3F80
4080
4080
E1C0
ENDCHAR
STARTCHAR Atilde
ENCODING 195
SWIDTH 704 0
DWIDTH 11 0
BBX 10 14 0 0
BITMAP
0C80
1300
0000
0400
0600
0A00
0A00
1300
1100
2100
3F80
4080
4080
E1C0
ENDCHAR
STARTCHAR Adieresis
ENCODING 196
SWIDTH 704 0
DWIDTH 11 0
BBX 10 14 0 0
BITMAP
0900
0900
0000
0400
0600
0A00
0A00
1300
1100
2100
3F80
4080
4080
E1C0
ENDCHAR
STARTCHAR Aring
ENCODING 197
SWIDTH 704 0
DWIDTH 11 0
BBX 10 14 0 0
BITMAP
0600
0900
0600
0400
0600
0A00
0A00
1300
1100
2100
3F80
4080
4080
E1C0
ENDCHAR
STARTCHAR AE
ENCODING 198
SWIDTH 870 0
DWIDTH 14 0
BBX 13 11 0 0
BITMAP
1FF8
0508
0908
0900
1120
11E0
3E20
2200
4208
4208
EFF8
ENDCHAR
STARTCHAR Ccedilla
ENCODING 199
SWIDTH 722 0
DWIDTH 10 0
BBX 9 14 0 -3
BITMAP
1E80
2180
4080
4000
8000
8000
8000
8000
8100
4200
3C00
1000
0800
3000
ENDCHAR
STARTCHAR Egrave
ENCODING 200
SWIDTH 722 0
DWIDTH 9 0
BBX 8 14 0 0
BITMAP
18
04
00
7F
21
21
20
24
3C
44
40
41
41
FF
ENDCHAR
STARTCHAR Eacute
ENCODING 201
SWIDTH 722 0
DWIDTH 9 0
BBX 8 14 0 0
BITMAP
06
08
00
7F
21
21
20
24
3C
44
40
41
41
FF
ENDCHAR
STARTCHAR Ecircumflex
ENCODING 202
SWIDTH 722 0
DWIDTH 9 0
BBX 8 14 0 0
BITMAP
0C
12
00
7F
21
21
20
24
3C
44
40
41
41
FF
ENDCHAR
STARTCHAR Edieresis
ENCODING 203
SWIDTH 722 0
DWIDTH 9 0
BBX 8 14 0 0
BITMAP
12
12
00
7F
21
21
20
24
3C
44
40
41
41
FF
ENDCHAR
STARTCHAR Igrave
ENCODING 204
SWIDTH 407 0
DWIDTH 7 0
BBX 4 14 1 0
BITMAP
60
10
00
70
20
20
20
20
20
40
40
40
40
E0
ENDCHAR
STARTCHAR Iacute
ENCODING 205
SWIDTH 407 0
DWIDTH 7 0
BBX 5 14 1 0
BITMAP
18
20
00
70
20
20
20
20
20
40
40
40
40
E0
ENDCHAR
STARTCHAR Icircumflex
ENCODING 206
SWIDTH 407 0
DWIDTH 7 0
BBX 5 14 1 0
BITMAP
30
48
00
70
20
20
20
20
20
40
40
40
40
E0
ENDCHAR
STARTCHAR Idieresis
ENCODING 207
SWIDTH 407 0
DWIDTH 7 0
BBX 5 14 1 0
BITMAP
48
48
00
70
20
20
20
20
20
40
40
40
40
E0
ENDCHAR
STARTCHAR Eth
ENCODING 208
SWIDTH 778 0
DWIDTH 11 0
BBX 10 11 0 0
BITMAP
7F00
2080
2040
2040
2040
F840
4040
4080
4080
4100
FE00
ENDCHAR
STARTCHAR Ntilde
ENCODING 209
SWIDTH 815 0
DWIDTH 12 0
BBX 11 14 0 0
BITMAP
0C80
1300
0000
70E0
3040
3840
2840
2C40
2480
4680
4280
4380
4180
E080
ENDCHAR
STARTCHAR Ograve
ENCODING 210
SWIDTH 778 0
DWIDTH 10 0
BBX 9 14 0 0
BITMAP
1800
0400
0000
1E00
2100
4080
4080
8080
8080
8080
8100
8100
4200
3C00
ENDCHAR
STARTCHAR Oacute
ENCODING 211
SWIDTH 778 0
DWIDTH 10 0
BBX 9 14 0 0
BITMAP
0600
0800
0000
1E00
2100
4080
4080
8080
8080
8080
8100
8100
4200
3C00
ENDCHAR
STARTCHAR Ocircumflex
ENCODING 212
SWIDTH 778 0
DWIDTH 10 0
BBX 9 14 0 0
BITMAP
0C00
1200
0000
1E00
2100
4080
4080
8080
8080
8080
8100
8100
4200
3C00
ENDCHAR
STARTCHAR Otilde
ENCODING 213
SWIDTH 778 0
DWIDTH 10 0
BBX 9 14 0 0
BITMAP
1900
2600
0000
1E00
2100
4080
4080
8080
8080
8080
8100
8100
4200
3C00
ENDCHAR
STARTCHAR Odieresis
ENCODING 214
SWIDTH 778 0
DWIDTH 10 0
BBX 9 14 0 0
BITMAP
0900
0900
0000
1E00
2100
4080
4080
8080
8080
8080
8100
8100
4200
3C00
ENDCHAR
STARTCHAR multiply
ENCODING 215
SWIDTH 606 0
DWIDTH 8 0
BBX 7 7 0 1
BITMAP
82
44
28
10
28
44
82
ENDCHAR
STARTCHAR Oslash
ENCODING 216
SWIDTH 778 0
DWIDTH 10 0
BBX 9 11 0 0
BITMAP
1E80
2100
4280
4480
8480
8880
9080
9100
A100
4200
BC00
ENDCHAR
STARTCHAR Ugrave
ENCODING 217
SWIDTH 815 0
DWIDTH 12 0
BBX 10 14 1 0
BITMAP
1800
0400
0000
E1C0
4080
4080
4080
4080
8100
8100
8100
8100
4200
3C00
ENDCHAR
STARTCHAR Uacute
ENCODING 218
SWIDTH 815 0
DWIDTH 12 0
BBX 10 14 1 0
BITMAP
0600
0800
0000
E1C0
4080
4080
4080
4080
8100
8100
8100
8100
4200
3C00
ENDCHAR
STARTCHAR Ucircumflex
ENCODING 219
SWIDTH 815 0
DWIDTH 12 0
BBX 10 14 1 0
BITMAP
0C00
1200
0000
E1C0
4080
4080
4080
4080
8100
8100
8100
8100
4200
3C00
ENDCHAR
STARTCHAR Udieresis
ENCODING 220
SWIDTH 815 0
DWIDTH 12 0
BBX 10 14 1 0
BITMAP
1200
1200
0000
E1C0
4080
4080
4080
4080
8100
8100
8100
8100
4200
3C00
ENDCHAR
STARTCHAR Yacute
ENCODING 221
SWIDTH 685 0
DWIDTH 9 0
BBX 9 14 0 0
BITMAP
0600
0800
0000
E380
4100
6200
2400
3800
1000
1000
2000
2000
2000
7000
ENDCHAR
STARTCHAR Thorn
ENCODING 222
SWIDTH 667 0
DWIDTH 10 0
BBX 8 11 0 0
BITMAP
70
20
3E
21
21
21
42
7C
40
40
E0
ENDCHAR
STARTCHAR germandbls
ENCODING 223
SWIDTH 556 0
DWIDTH 8 0
BBX 7 14 0 -3
BITMAP
1C
22
22
22
2C
42
42
42
42
A4
B8
80
80
80
ENDCHAR
STARTCHAR agrave
ENCODING 224
SWIDTH 574 0
DWIDTH 9 0
BBX 8 10 0 0
BITMAP
30
08
00
3A
46
82
84
84
8D
76
ENDCHAR
STARTCHAR aacute
ENCODING 225
SWIDTH 574 0
DWIDTH 9 0
BBX 8 10 0 0
BITMAP
0C
10
00
3A
46
82
84
84
8D
76
ENDCHAR
STARTCHAR acircumflex
ENCODING 226
SWIDTH 574 0
DWIDTH 9 0
BBX 8 10 0 0
BITMAP
18
24
00
3A
46
82
84
84
8D
76
ENDCHAR
STARTCHAR atilde
ENCODING 227
SWIDTH 574 0
DWIDTH 9 0
BBX 8 10 0 0
BITMAP
32
4C
00
3A
46
82
84
84
8D
76
ENDCHAR
STARTCHAR adieresis
ENCODING 228
SWIDTH 574 0
DWIDTH 9 0
BBX 8 10 0 0
BITMAP
24
24
00
3A
46
82
84
84
8D
76
ENDCHAR
STARTCHAR aring
ENCODING 229
SWIDTH 574 0
DWIDTH 9 0
BBX 8 11 0 0
BITMAP
18
24
18
00
3A
46
82
84
84
8D
76
ENDCHAR
STARTCHAR ae
ENCODING 230
SWIDTH 722 0
DWIDTH 10 0
BBX 9 7 0 0
BITMAP
7380
4C80
0900
7E00
8800
9880
6700
ENDCHAR
STARTCHAR ccedilla
ENCODING 231
SWIDTH 444 0
DWIDTH 6 0
BBX 5 10 0 -3
BITMAP
38
48
80
80
80
88
70
20
10
60
ENDCHAR
STARTCHAR egrave
ENCODING 232
SWIDTH 444 0
DWIDTH 6 0
BBX 5 10 0 0
BITMAP
60
10
00
38
48
90
E0
80
88
70
ENDCHAR
STARTCHAR eacute
ENCODING 233
SWIDTH 444 0
DWIDTH 6 0
BBX 5 10 0 0
BITMAP
18
20
00
38
48
90
E0
80
88
70
ENDCHAR
STARTCHAR ecircumflex
ENCODING 234
SWIDTH 444 0
DWIDTH 6 0
BBX 5 10 0 0
BITMAP
30
48
00
38
48
90
E0
80
88
70
ENDCHAR
STARTCHAR edieresis
ENCODING 235
SWIDTH 444 0
DWIDTH 6 0
BBX 5 10 0 0
BITMAP
48
48
00
38
48
90
E0
80
88
70
ENDCHAR
STARTCHAR igrave
ENCODING 236
SWIDTH 333 0
DWIDTH 4 0
BBX 3 10 0 0
BITMAP
C0
20
00
C0
40
40
80
80
A0
C0
ENDCHAR
STARTCHAR iacute
ENCODING 237
SWIDTH 333 0
DWIDTH 4 0
BBX 3 10 0 0
BITMAP
60
80
00
C0
40
40
80
80
A0
C0
ENDCHAR
STARTCHAR icircumflex
ENCODING 238
SWIDTH 333 0
DWIDTH 4 0
BBX 4 10 0 0
BITMAP
60
90
00
C0
40
40
80
80
A0
C0
ENDCHAR
STARTCHAR idieresis
ENCODING 239
SWIDTH 333 0
DWIDTH 4 0
BBX 4 10 0 0
BITMAP
90
90
00
C0
40
40
80
80
A0
C0
ENDCHAR
STARTCHAR eth
ENCODING 240
SWIDTH 500 0
DWIDTH 7 0
BBX 6 11 0 0
BITMAP
40
38
50
08
3C
44
84
84
84
88
70
ENDCHAR
STARTCHAR ntilde
ENCODING 241
SWIDTH 611 0
DWIDTH 9 0
BBX 8 10 0 0
BITMAP
32
4C
00
CC
52
62
42
84
85
86
ENDCHAR
STARTCHAR ograve
ENCODING 242
SWIDTH 500 0
DWIDTH 7 0
BBX 6 10 0 0
BITMAP
30
08
00
38
44
84
84
84
88
70
ENDCHAR
STARTCHAR oacute
ENCODING 243
SWIDTH 500 0
DWIDTH 7 0
BBX 6 10 0 0
BITMAP
0C
10
00
38
44
84
84
84
88
70
ENDCHAR
STARTCHAR ocircumflex
ENCODING 244
SWIDTH 500 0
DWIDTH 7 0
BBX 6 10 0 0
BITMAP
18
24
00
38
44
84
84
84
88
70
ENDCHAR
STARTCHAR otilde
ENCODING 245
SWIDTH 500 0
DWIDTH 7 0
BBX 6 10 0 0
BITMAP
64
98
00
38
44
84
84
84
88
70
ENDCHAR
STARTCHAR odieresis
ENCODING 246
SWIDTH 500 0
DWIDTH 7 0
BBX 6 10 0 0
BITMAP
24
24
00
38
44
84
84
84
88
70
ENDCHAR
STARTCHAR divide
ENCODING 247
SWIDTH 606 0
DWIDTH 8 0
BBX 7 7 0 1
BITMAP
10
10
00
FE
00
10
10
ENDCHAR
STARTCHAR oslash
ENCODING 248
SWIDTH 500 0
DWIDTH 7 0
BBX 6 9 0 -1
BITMAP
04
38
4C
94
94
A4
C8
70
80
ENDCHAR
STARTCHAR ugrave
ENCODING 249
SWIDTH 611 0
DWIDTH 9 0
BBX 8 10 0 0
BITMAP
30
08
00
C2
42
42
84
8C
95
66
ENDCHAR
STARTCHAR uacute
ENCODING 250
SWIDTH 611 0
DWIDTH 9 0
BBX 8 10 0 0
BITMAP
0C
10
00
C2
42
42
84
8C
95
66
ENDCHAR
STARTCHAR ucircumflex
ENCODING 251
SWIDTH 611 0
DWIDTH 9 0
BBX 8 10 0 0
BITMAP
18
24
00
C2
42
42
84
8C
95
66
ENDCHAR
STARTCHAR udieresis
ENCODING 252
SWIDTH 611 0
DWIDTH 9 0
BBX 8 10 0 0
BITMAP
24
24
00
C2
42
42
84
8C
95
66
ENDCHAR
STARTCHAR yacute
ENCODING 253
SWIDTH 500 0
DWIDTH 7 0
BBX 7 13 -1 -3
BITMAP
0C
10
00
C6
42
64
24
38
10
10
20
A0
C0
ENDCHAR
STARTCHAR thorn
ENCODING 254
SWIDTH 574 0
DWIDTH 7 0
BBX 8 14 -2 -3
BITMAP
18
08
08
10
16
19
11
21
21
32
2C
40
40
E0
ENDCHAR
STARTCHAR ydieresis
ENCODING 255
SWIDTH 500 0
DWIDTH 7 0
BBX 7 13 -1 -3
BITMAP
24
24
00
C6
42
64
24
38
10
10
20
A0
C0
ENDCHAR
STARTCHAR Amacron
ENCODING 256
SWIDTH 704 0
DWIDTH 11 0
BBX 10 13 0 0
BITMAP
1F00
0000
0400
0600
0A00
0A00
1300
1100
2100
3F80
4080
4080
E1C0
ENDCHAR
STARTCHAR amacron
ENCODING 257
SWIDTH 574 0
DWIDTH 9 0
BBX 8 9 0 0
BITMAP
3E
00
3A
46
82
84
84
8D
76
ENDCHAR
STARTCHAR Abreve
ENCODING 258
SWIDTH 704 0
DWIDTH 11 0
BBX 10 15 0 0
BITMAP
1200
1200
0C00
0000
0400
0600
0A00
0A00
1300
1100
2100
3F80
4080
4080
E1C0
ENDCHAR
STARTCHAR abreve
ENCODING 259
SWIDTH 574 0
DWIDTH 9 0
BBX 8 11 0 0
BITMAP
24
24
18
00
3A
46
82
84
84
8D
76
ENDCHAR
STARTCHAR Aogonek
ENCODING 260
SWIDTH 704 0
DWIDTH 11 0
BBX 10 14 0 -3
BITMAP
0400
0600
0A00
0A00
1300
1100
2100
3F80
4080
4080
E1C0
0400
0800
0E00
ENDCHAR
STARTCHAR aogonek
ENCODING 261
SWIDTH 574 0
DWIDTH 9 0
BBX 8 10 0 -3
BITMAP
3A
46
82
84
84
8D
76
08
10
1C
ENDCHAR
STARTCHAR Cacute
ENCODING 262
SWIDTH 722 0
DWIDTH 10 0
BBX 9 15 0 0
BITMAP
0200
0400
0800
0000
1E80
2180
4080
4000
8000
8000
8000
8000
8100
4200
3C00
ENDCHAR
STARTCHAR cacute
ENCODING 263
SWIDTH 444 0
DWIDTH 6 0
BBX 5 11 0 0
BITMAP
08
10
20
00
38
48
80
80
80
88
70
ENDCHAR
STARTCHAR Ccircumflex
ENCODING 264
SWIDTH 722 0
DWIDTH 10 0
BBX 9 15 0 0
BITMAP
0400
0A00
1100
0000
1E80
2180
4080
4000
8000
8000
8000
8000
8100
4200
3C00
ENDCHAR
STARTCHAR ccircumflex
ENCODING 265
SWIDTH 444 0
DWIDTH 6 0
BBX 6 11 0 0
BITMAP
10
28
44
00
38
48
80
80
80
88
70
ENDCHAR
STARTCHAR Cdotaccent
ENCODING 266
SWIDTH 722 0
DWIDTH 10 0
BBX 9 14 0 0
BITMAP
0400
0400
0000
1E80
2180
4080
4000
8000
8000
8000
8000
8100
4200
3C00
ENDCHAR
STARTCHAR cdotaccent
ENCODING 267
SWIDTH 444 0
DWIDTH 6 0
BBX 5 10 0 0
BITMAP
10
10
00
38
48
80
80
80
88
70
ENDCHAR
STARTCHAR Ccaron
ENCODING 268
SWIDTH 722 0
DWIDTH 10 0
BBX 9 15 0 0
BITMAP
1100
0A00
0400
0000
1E80
2180
4080
4000
8000
8000
8000
8000
8100
4200
3C00
ENDCHAR
STARTCHAR ccaron
ENCODING 269
SWIDTH 444 0
DWIDTH 6 0
BBX 6 11 0 0
BITMAP
44
28
10
00
38
48
80
80
80
88
70
ENDCHAR
STARTCHAR Dcaron
ENCODING 270
SWIDTH 778 0
DWIDTH 11 0
BBX 10 15 0 0
BITMAP
2200
1400
0800
0000
7F00
2080
2040
2040
2040
2040
4040
4080
4080
4100
FE00
ENDCHAR
STARTCHAR dcaron
ENCODING 271
SWIDTH 784 0
DWIDTH 13 0
BBX 12 11 0 0
BITMAP
0330
0110
0120
0240
3A00
4600
8200
8400
8400
8D00
7600
ENDCHAR
STARTCHAR Dcroat
ENCODING 272
SWIDTH 778 0
DWIDTH 11 0
BBX 10 11 0 0
BITMAP
7F00
2080
2040
2040
2040
F840
4040
4080
4080
4100
FE00
ENDCHAR
STARTCHAR dcroat
ENCODING 273
SWIDTH 611 0
DWIDTH 9 0
BBX 8 11 0 0
BITMAP
03
01
1F
02
3A
46
82
84
84
8D
76
ENDCHAR
STARTCHAR Emacron
ENCODING 274
SWIDTH 722 0
DWIDTH 9 0
BBX 8 13 0 0
BITMAP
3E
00
7F
21
21
20
24
3C
44
40
41
41
FF
ENDCHAR
STARTCHAR emacron
ENCODING 275
SWIDTH 444 0
DWIDTH 6 0
BBX 6 9 0 0
BITMAP
7C
00
38
48
90
E0
80
88
70
ENDCHAR
STARTCHAR Ebreve
ENCODING 276
SWIDTH 722 0
DWIDTH 9 0
BBX 8 15 0 0
BITMAP
24
24
18
00
7F
21
21
20
24
3C
44
40
41
41
FF
ENDCHAR
STARTCHAR ebreve
ENCODING 277
SWIDTH 444 0
DWIDTH 6 0
BBX 5 11 0 0
BITMAP
48
48
30
00
38
48
90
E0
80
88
70
ENDCHAR
STARTCHAR Edotaccent
ENCODING 278
SWIDTH 722 0
DWIDTH 9 0
BBX 8 14 0 0
BITMAP
08
08
00
7F
21
21
20
24
3C
44
40
41
41
FF
ENDCHAR
STARTCHAR edotaccent
ENCODING 279
SWIDTH 444 0
DWIDTH 6 0
BBX 5 10 0 0
BITMAP
10
10
00
38
48
90
E0
80
88
70
ENDCHAR
STARTCHAR Eogonek
ENCODING 280
SWIDTH 722 0
DWIDTH 9 0
BBX 8 14 0 -3
BITMAP
7F
21
21
20
24
3C
44
40
41
41
FF
08
10
1C
ENDCHAR
STARTCHAR eogonek
ENCODING 281
SWIDTH 444 0
DWIDTH 6 0
BBX 5 10 0 -3
BITMAP
38
48
90
E0
80
88
70
20
40
70
ENDCHAR
STARTCHAR Ecaron
ENCODING 282
SWIDTH 722 0
DWIDTH 9 0
BBX 8 15 0 0
BITMAP
22
14
08
00
7F
21
21
20
24
3C
44
40
41
41
FF
ENDCHAR
STARTCHAR ecaron
ENCODING 283
SWIDTH 444 0
DWIDTH 6 0
BBX 6 11 0 0
BITMAP
44
28
10
00
38
48
90
E0
80
88
70
ENDCHAR
STARTCHAR Gcircumflex
ENCODING 284
SWIDTH 778 0
DWIDTH 10 0
BBX 9 15 0 0
BITMAP
0400
0A00
1100
0000
1E80
2180
4080
4000
8000
8000
8380
8100
8100
4300
3D00
ENDCHAR
STARTCHAR gcircumflex
ENCODING 285
SWIDTH 537 0
DWIDTH 7 0
BBX 9 15 -2 -3
BITMAP
0400
0A00
1100
0000
0180
0E00
1100
2100
2200
1C00
2000
3C00
4200
8200
7C00
ENDCHAR
STARTCHAR Gbreve
ENCODING 286
SWIDTH 778 0
DWIDTH 10 0
BBX 9 15 0 0
BITMAP
1200
1200
0C00
0000
1E80
2180
4080
4000
8000
8000
8380
8100
8100
4300
3D00
ENDCHAR
STARTCHAR gbreve
ENCODING 287
SWIDTH 537 0
DWIDTH 7 0
BBX 9 15 -2 -3
BITMAP
0900
0900
0600
0000
0180
0E00
1100
2100
2200
1C00
2000
3C00
4200
8200
7C00
ENDCHAR
STARTCHAR Gdotaccent
ENCODING 288
SWIDTH 778 0
DWIDTH 10 0
BBX 9 14 0 0
BITMAP
0400
0400
0000
1E80
2180
4080
4000
8000
8000
8380
8100
8100
4300
3D00
ENDCHAR
STARTCHAR gdotaccent
ENCODING 289
SWIDTH 537 0
DWIDTH 7 0
BBX 9 14 -2 -3
BITMAP
0400
0400
0000
0180
0E00
1100
2100
2200
1C00
2000
3C00
4200
8200
7C00
ENDCHAR
STARTCHAR Gcommaaccent
ENCODING 290
SWIDTH 778 0
DWIDTH 10 0
BBX 9 16 0 -5
BITMAP
1E80
2180
4080
4000
8000
8000
8380
8100
8100
4300
3D00
0000
0C00
0400
0800
1000
ENDCHAR
STARTCHAR gcommaaccent
ENCODING 291
SWIDTH 537 0
DWIDTH 7 0
BBX 9 16 -2 -3
BITMAP
0100
0200
0400
0600
0000
0180
0E00
1100
2100
2200
1C00
2000
3C00
4200
8200
7C00
ENDCHAR
STARTCHAR Hcircumflex
ENCODING 292
SWIDTH 833 0
DWIDTH 11 0
BBX 10 15 0 0
BITMAP
0400
0A00
1100
0000
71C0
2080
2080
2080
2080
3F00
4100
4100
4100
4100
E380
ENDCHAR
STARTCHAR hcircumflex
ENCODING 293
SWIDTH 611 0
DWIDTH 9 0
BBX 8 15 0 0
BITMAP
20
50
88
00
60
20
20
20
4C
52
62
42
84
85
86
ENDCHAR
STARTCHAR Hbar
ENCODING 294
SWIDTH 833 0
DWIDTH 11 0
BBX 10 11 0 0
BITMAP
71C0
2080
2080
FFC0
2080
3F00
4100
4100
4100
4100
E380
ENDCHAR
STARTCHAR hbar
ENCODING 295
SWIDTH 611 0
DWIDTH 9 0
BBX 8 11 0 0
BITMAP
60
20
F0
20
4C
52
62
42
84
85
86
ENDCHAR
STARTCHAR Itilde
ENCODING 296
SWIDTH 407 0
DWIDTH 7 0
BBX 6 14 0 0
BITMAP
64
98
00
38
10
10
10
10
10
20
20
20
20
70
ENDCHAR
STARTCHAR itilde
ENCODING 297
SWIDTH 333 0
DWIDTH 4 0
BBX 6 10 -2 0
BITMAP
64
98
00
30
10
10
20
20
28
30
ENDCHAR
STARTCHAR Imacron
ENCODING 298
SWIDTH 407 0
DWIDTH 7 0
BBX 5 13 1 0
BITMAP
F8
00
70
20
20
20
20
20
40
40
40
40
E0
ENDCHAR
STARTCHAR imacron
ENCODING 299
SWIDTH 333 0
DWIDTH 4 0
BBX 5 9 -1 0
BITMAP
F8
00
60
20
20
40
40
50
60
ENDCHAR
STARTCHAR Ibreve
ENCODING 300
SWIDTH 407 0
DWIDTH 7 0
BBX 4 15 1 0
BITMAP
90
90
60
00
70
20
20
20
20
20
40
40
40
40
E0
ENDCHAR
STARTCHAR ibreve
ENCODING 301
SWIDTH 333 0
DWIDTH 4 0
BBX 4 11 -1 0
BITMAP
90
90
60
00
60
20
20
40
40
50
60
ENDCHAR
STARTCHAR Iogonek
ENCODING 302
SWIDTH 407 0
DWIDTH 7 0
BBX 4 14 1 -3
BITMAP
70
20
20
20
20
20
40
40
40
40
E0
40
80
E0
ENDCHAR
STARTCHAR iogonek
ENCODING 303
SWIDTH 333 0
DWIDTH 4 0
BBX 3 14 0 -3
BITMAP
20
20
00
00
C0
40
40
80
80
A0
C0
40
80
E0
ENDCHAR
STARTCHAR Idotaccent
ENCODING 304
SWIDTH 407 0
DWIDTH 7 0
BBX 4 14 1 0
BITMAP
20
20
00
70
20
20
20
20
20
40
40
40
40
E0
ENDCHAR
STARTCHAR dotlessi
ENCODING 305
SWIDTH 333 0
DWIDTH 4 0
BBX 3 7 0 0
BITMAP
C0
40
40
80
80
A0
C0
ENDCHAR
STARTCHAR IJ
ENCODING 306
SWIDTH 998 0
DWIDTH 15 0
BBX 13 11 1 0
BITMAP
7038
2010
2010
2010
2010
2010
4020
4320
4220
4220
E1C0
ENDCHAR
STARTCHAR ij
ENCODING 307
SWIDTH 631 0
DWIDTH 8 0
BBX 7 14 0 -3
BITMAP
22
22
00
00
CC
44
44
84
84
A8
C8
08
28
30
ENDCHAR
STARTCHAR Jcircumflex
ENCODING 308
SWIDTH 611 0
DWIDTH 8 0
BBX 7 15 0 0
BITMAP
08
14
22
00
0E
04
04
04
04
04
08
C8
88
88
70
ENDCHAR
STARTCHAR jcircumflex
ENCODING 309
SWIDTH 315 0
DWIDTH 4 0
BBX 6 14 -2 -3
BITMAP
10
28
44
00
30
10
10
10
10
20
20
20
A0
C0
ENDCHAR
STARTCHAR Kcommaaccent
ENCODING 310
SWIDTH 741 0
DWIDTH 10 0
BBX 9 16 0 -5
BITMAP
7380
2100
2200
2400
2800
3800
4C00
4400
4600
4200
E700
0000
1800
0800
1000
2000
ENDCHAR
STARTCHAR kcommaaccent
ENCODING 311
SWIDTH 556 0
DWIDTH 8 0
BBX 7 16 0 -5
BITMAP
60
20
20
20
4C
52
64
58
90
92
8C
00
30
10
20
40
ENDCHAR
STARTCHAR kgreenlandic
ENCODING 312
SWIDTH 556 0
DWIDTH 8 0
BBX 7 7 0 0
BITMAP
4C
52
64
58
90
92
8C
ENDCHAR
STARTCHAR Lacute
ENCODING 313
SWIDTH 667 0
DWIDTH 9 0
BBX 8 15 0 0
BITMAP
08
10
20
00
70
20
20
20
20
20
40
40
41
41
FF
ENDCHAR
STARTCHAR lacute
ENCODING 314
SWIDTH 333 0
DWIDTH 4 0
BBX 4 15 0 0
BITMAP
10
20
40
00
60
20
20
20
40
40
40
80
80
A0
C0
ENDCHAR
STARTCHAR Lcommaaccent
ENCODING 315
SWIDTH 667 0
DWIDTH 9 0
BBX 8 16 0 -5
BITMAP
70
20
20
20
20
20
40
40
41
41
FF
00
18
08
10
20
ENDCHAR
STARTCHAR lcommaaccent
ENCODING 316
SWIDTH 333 0
DWIDTH 4 0
BBX 4 16 -1 -5
BITMAP
30
10
10
10
20
20
20
40
40
50
60
00
60
20
40
80
ENDCHAR
STARTCHAR Lcaron
ENCODING 317
SWIDTH 838 0
DWIDTH 13 0
BBX 12 11 0 0
BITMAP
7030
2010
2020
2040
2000
2000
4000
4000
4100
4100
FF00
ENDCHAR
STARTCHAR lcaron
ENCODING 318
SWIDTH 520 0
DWIDTH 8 0
BBX 7 11 0 0
BITMAP
66
22
24
28
40
40
40
80
80
A0
C0
ENDCHAR
STARTCHAR Ldot
ENCODING 319
SWIDTH 912 0
DWIDTH 14 0
BBX 12 11 0 0
BITMAP
7000
2000
2000
2000
2000
2030
4030
4000
4100
4100
FF00
ENDCHAR
STARTCHAR ldot
ENCODING 320
SWIDTH 594 0
DWIDTH 9 0
BBX 7 11 0 0
BITMAP
60
20
20
20
40
46
46
80
80
A0
C0
ENDCHAR
STARTCHAR Lslash
ENCODING 321
SWIDTH 667 0
DWIDTH 9 0
BBX 8 11 0 0
BITMAP
70
20
20
24
28
30
40
C0
41
41
FF
ENDCHAR
STARTCHAR lslash
ENCODING 322
SWIDTH 333 0
DWIDTH 4 0
BBX 4 11 0 0
BITMAP
E0
20
20
30
40
C0
40
80
80
A0
C0
ENDCHAR
STARTCHAR Nacute
ENCODING 323
SWIDTH 815 0
DWIDTH 12 0
BBX 11 15 0 0
BITMAP
0100
0200
0400
0000
70E0
3040
3840
2840
2C40
2480
4680
4280
4380
4180
E080
ENDCHAR
STARTCHAR nacute
ENCODING 324
SWIDTH 611 0
DWIDTH 9 0
BBX 8 11 0 0
BITMAP
04
08
10
00
CC
52
62
42
84
85
86
ENDCHAR
STARTCHAR Ncommaaccent
ENCODING 325
SWIDTH 815 0
DWIDTH 12 0
BBX 11 16 0 -5
BITMAP
70E0
3040
3840
2840
2C40
2480
4680
4280
4380
4180
E080
0000
0C00
0400
0800
1000
ENDCHAR
STARTCHAR ncommaaccent
ENCODING 326
SWIDTH 611 0
DWIDTH 9 0
BBX 8 12 0 -5
BITMAP
CC
52
62
42
84
85
86
00
18
08
10
20
ENDCHAR
STARTCHAR Ncaron
ENCODING 327
SWIDTH 815 0
DWIDTH 12 0
BBX 11 15 0 0
BITMAP
1100
0A00
0400
0000
70E0
3040
3840
2840
2C40
2480
4680
4280
4380
4180
E080
ENDCHAR
STARTCHAR ncaron
ENCODING 328
SWIDTH 611 0
DWIDTH 9 0
BBX 8 11 0 0
BITMAP
44
28
10
00
CC
52
62
42
84
85
86
ENDCHAR
STARTCHAR napostrophe
ENCODING 329
SWIDTH 805 0
DWIDTH 13 0
BBX 12 11 0 0
BITMAP
6000
2000
4000
8000
0CC0
0520
0620
0420
0840
0850
0860
ENDCHAR
STARTCHAR Eng
ENCODING 330
SWIDTH 815 0
DWIDTH 12 0
BBX 11 14 0 -3
BITMAP
70E0
3040
3840
2840
2C40
2480
4680
4280
4380
4180
E180
0100
0500
0600
ENDCHAR
STARTCHAR eng
ENCODING 331
SWIDTH 611 0
DWIDTH 9 0
BBX 7 10 0 -3
BITMAP
CC
52
62
42
84
88
88
08
28
30
ENDCHAR
STARTCHAR Omacron
ENCODING 332
SWIDTH 778 0
DWIDTH 10 0
BBX 9 13 0 0
BITMAP
3E00
0000
1E00
2100
4080
4080
8080
8080
8080
8100
8100
4200
3C00
ENDCHAR
STARTCHAR omacron
ENCODING 333
SWIDTH 500 0
DWIDTH 7 0
BBX 6 9 0 0
BITMAP
7C
00
38
44
84
84
84
88
70
ENDCHAR
STARTCHAR Obreve
ENCODING 334
SWIDTH 778 0
DWIDTH 10 0
BBX 9 15 0 0
BITMAP
1200
1200
0C00
0000
1E00
2100
4080
4080
8080
8080
8080
8100
8100
4200
3C00
ENDCHAR
STARTCHAR obreve
ENCODING 335
SWIDTH 500 0
DWIDTH 7 0
BBX 6 11 0 0
BITMAP
48
48
30
00
38
44
84
84
84
88
70
ENDCHAR
STARTCHAR Ohungarumlaut
ENCODING 336
SWIDTH 778 0
DWIDTH 10 0
BBX 9 15 0 0
BITMAP
0480
0900
1200
0000
1E00
2100
4080
4080
8080
8080
8080
8100
8100
4200
3C00
ENDCHAR
STARTCHAR ohungarumlaut
ENCODING 337
SWIDTH 500 0
DWIDTH 7 0
BBX 7 11 0 0
BITMAP
12
24
48
00
38
44
84
84
84
88
70
ENDCHAR
STARTCHAR OE
ENCODING 338
SWIDTH 981 0
DWIDTH 14 0
BBX 13 11 0 0
BITMAP
1FF8
2108
4108
4100
8120
81E0
8220
8200
8208
4208
3FF8
ENDCHAR
STARTCHAR oe
ENCODING 339
SWIDTH 778 0
DWIDTH 11 0
BBX 10 7 0 0
BITMAP
39C0
4640
8480
8700
8400
8C40
7380
ENDCHAR
STARTCHAR Racute
ENCODING 340
SWIDTH 741 0
DWIDTH 11 0
BBX 9 15 0 0
BITMAP
0200
0400
0800
0000
7E00
2100
2100
2100
2200
3C00
4400
4200
4200
4280
E100
ENDCHAR
STARTCHAR racute
ENCODING 341
SWIDTH 444 0
DWIDTH 7 0
BBX 6 11 0 0
BITMAP
08
10
20
00
CC
54
60
40
80
80
80
ENDCHAR
STARTCHAR Rcommaaccent
ENCODING 342
SWIDTH 741 0
DWIDTH 11 0
BBX 9 16 0 -5
BITMAP
7E00
2100
2100
2100
2200
3C00
4400
4200
4200
4280
E100
0000
1800
0800
1000
2000
ENDCHAR
STARTCHAR rcommaaccent
ENCODING 343
SWIDTH 444 0
DWIDTH 7 0
BBX 7 12 -1 -5
BITMAP
66
2A
30
20
40
40
40
00
60
20
40
80
ENDCHAR
STARTCHAR Rcaron
ENCODING 344
SWIDTH 741 0
DWIDTH 11 0
BBX 9 15 0 0
BITMAP
2200
1400
0800
0000
7E00
2100
2100
2100
2200
3C00
4400
4200
4200
4280
E100
ENDCHAR
STARTCHAR rcaron
ENCODING 345
SWIDTH 444 0
DWIDTH 7 0
BBX 6 11 0 0
BITMAP
44
28
10
00
CC
54
60
40
80
80
80
ENDCHAR
STARTCHAR Sacute
ENCODING 346
SWIDTH 667 0
DWIDTH 10 0
BBX 9 15 0 0
BITMAP
0200
0400
0800
0000
1E80
2180
4080
6000
3800
0E00
0300
0100
8100
C200
BC00
ENDCHAR
STARTCHAR sacute
ENCODING 347
SWIDTH 444 0
DWIDTH 7 0
BBX 6 11 0 0
BITMAP
04
08
10
00
3C
44
40
30
08
88
F0
ENDCHAR
STARTCHAR Scircumflex
ENCODING 348
SWIDTH 667 0
DWIDTH 10 0
BBX 9 15 0 0
BITMAP
0400
0A00
1100
0000
1E80
2180
4080
6000
3800
0E00
0300
0100
8100
C200
BC00
ENDCHAR
STARTCHAR scircumflex
ENCODING 349
SWIDTH 444 0
DWIDTH 7 0
BBX 6 11 0 0
BITMAP
10
28
44
00
3C
44
40
30
08
88
F0
ENDCHAR
STARTCHAR Scedilla
ENCODING 350
SWIDTH 667 0
DWIDTH 10 0
BBX 9 14 0 -3
BITMAP
1E80
2180
4080
6000
3800
0E00
0300
0100
8100
C200
BC00
1000
0800
3000
ENDCHAR
STARTCHAR scedilla
ENCODING 351
SWIDTH 444 0
DWIDTH 7 0
BBX 6 10 0 -3
BITMAP
3C
44
40
30
08
88
F0
20
10
60
ENDCHAR
STARTCHAR Scaron
ENCODING 352
SWIDTH 667 0
DWIDTH 10 0
BBX 9 14 0 0
BITMAP
0900
0600
0000
1E80
2180
4080
6000
3800
0E00
0300
0100
8100
C200
BC00
ENDCHAR
STARTCHAR scaron
ENCODING 353
SWIDTH 444 0
DWIDTH 7 0
BBX 6 11 0 0
BITMAP
44
28
10
00
3C
44
40
30
08
88
F0
ENDCHAR
STARTCHAR Tcommaaccent
ENCODING 354
SWIDTH 685 0
DWIDTH 10 0
BBX 9 14 0 -3
BITMAP
FF80
8880
8880
0800
0800
0800
1000
1000
1000
1000
3800
1000
0800
3000
ENDCHAR
STARTCHAR tcommaaccent
ENCODING 355
SWIDTH 352 0
DWIDTH 5 0
BBX 5 12 0 -3
BITMAP
20
20
F8
40
40
40
80
A0
C0
40
20
C0
ENDCHAR
STARTCHAR Tcaron
ENCODING 356
SWIDTH 685 0
DWIDTH 10 0
BBX 9 15 0 0
BITMAP
2200
1400
0800
0000
FF80
8880
8880
0800
0800
0800
1000
1000
1000
1000
3800
ENDCHAR
STARTCHAR tcaron
ENCODING 357
SWIDTH 538 0
DWIDTH 9 0
BBX 8 11 0 0
BITMAP
03
01
22
24
F8
40
40
40
80
A0
C0
ENDCHAR
STARTCHAR Tbar
ENCODING 358
SWIDTH 685 0
DWIDTH 10 0
BBX 9 11 0 0
BITMAP
FF80
8880
8880
0800
0800
1E00
1000
1000
1000
1000
3800
ENDCHAR
STARTCHAR tbar
ENCODING 359
SWIDTH 352 0
DWIDTH 5 0
BBX 5 9 0 0
BITMAP
20
20
F8
40
40
78
80
A0
C0
ENDCHAR
STARTCHAR Utilde
ENCODING 360
SWIDTH 815 0
DWIDTH 12 0
BBX 10 14 1 0
BITMAP
1900
2600
0000
E1C0
4080
4080
4080
4080
8100
8100
8100
8100
4200
3C00
ENDCHAR
STARTCHAR utilde
ENCODING 361
SWIDTH 611 0
DWIDTH 9 0
BBX 8 10 0 0
BITMAP
32
4C
00
C2
42
42
84
8C
95
66
ENDCHAR
STARTCHAR Umacron
ENCODING 362
SWIDTH 815 0
DWIDTH 12 0
BBX 10 13 1 0
BITMAP
1F00
0000
E1C0
4080
4080
4080
4080
8100
8100
8100
8100
4200
3C00
ENDCHAR
STARTCHAR umacron
ENCODING 363
SWIDTH 611 0
DWIDTH 9 0
BBX 8 9 0 0
BITMAP
7C
00
C2
42
42
84
8C
95
66
ENDCHAR
STARTCHAR Ubreve
ENCODING 364
SWIDTH 815 0
DWIDTH 12 0
BBX 10 15 1 0
BITMAP
1200
1200
0C00
0000
E1C0
4080
4080
4080
4080
8100
8100
8100
8100
4200
3C00
ENDCHAR
STARTCHAR ubreve
ENCODING 365
SWIDTH 611 0
DWIDTH 9 0
BBX 8 11 0 0
BITMAP
24
24
18
00
C2
42
42
84
8C
95
66
ENDCHAR
STARTCHAR Uring
ENCODING 366
SWIDTH 815 0
DWIDTH 12 0
BBX 10 15 1 0
BITMAP
0C00
1200
0C00
0000
E1C0
4080
4080
4080
4080
8100
8100
8100
8100
4200
3C00
ENDCHAR
STARTCHAR uring
ENCODING 367
SWIDTH 611 0
DWIDTH 9 0
BBX 8 11 0 0
BITMAP
18
24
18
00
C2
42
42
84
8C
95
66
ENDCHAR
STARTCHAR Uhungarumlaut
ENCODING 368
SWIDTH 815 0
DWIDTH 12 0
BBX 10 15 1 0
BITMAP
0480
0900
1200
0000
E1C0
4080
4080
4080
4080
8100
8100
8100
8100
4200
3C00
ENDCHAR
STARTCHAR uhungarumlaut
ENCODING 369
SWIDTH 611 0
DWIDTH 9 0
BBX 8 11 0 0
BITMAP
12
24
48
00
C2
42
42
84
8C
95
66
ENDCHAR
STARTCHAR Uogonek
ENCODING 370
SWIDTH 815 0
DWIDTH 12 0
BBX 10 14 1 -3
BITMAP
E1C0
4080
4080
4080
4080
8100
8100
8100
8100
4200
3C00
0800
1000
1C00
ENDCHAR
STARTCHAR uogonek
ENCODING 371
SWIDTH 611 0
DWIDTH 9 0
BBX 8 10 0 -3
BITMAP
C2
42
42
84
8C
95
66
08
10
1C
ENDCHAR
STARTCHAR Wcircumflex
ENCODING 372
SWIDTH 926 0
DWIDTH 13 0
BBX 13 15 0 0
BITMAP
0200
0500
0880
0000
E738
4210
4210
6310
2520
2520
2940
39C0
1080
1080
1080
ENDCHAR
STARTCHAR wcircumflex
ENCODING 373
SWIDTH 778 0
DWIDTH 11 0
BBX 10 11 0 0
BITMAP
0400
0A00
1100
0000
C4C0
4440
4440
8840
8880
9900
6600
ENDCHAR
STARTCHAR Ycircumflex
ENCODING 374
SWIDTH 685 0
DWIDTH 9 0
BBX 9 15 0 0
BITMAP
0800
1400
2200
0000
E380
4100
6200
2400
3800
1000
1000
2000
2000
2000
7000
ENDCHAR
STARTCHAR ycircumflex
ENCODING 375
SWIDTH 500 0
DWIDTH 7 0
BBX 7 14 -1 -3
BITMAP
10
28
44
00
C6
42
64
24
28
30
10
20
A0
C0
ENDCHAR
STARTCHAR Ydieresis
ENCODING 376
SWIDTH 685 0
DWIDTH 9 0
BBX 9 13 0 0
BITMAP
3300
0000
E380
4100
6200
2400
3800
1000
1000
2000
2000
2000
7000
ENDCHAR
STARTCHAR Zacute
ENCODING 377
SWIDTH 667 0
DWIDTH 10 0
BBX 9 15 0 0
BITMAP
0200
0400
0800
0000
7F80
4100
4200
0400
0800
0800
1000
2000
4100
8100
FF00
ENDCHAR
STARTCHAR zacute
ENCODING 378
SWIDTH 463 0
DWIDTH 8 0
BBX 7 11 0 0
BITMAP
04
08
10
00
72
4C
08
10
20
44
BC
ENDCHAR
STARTCHAR Zdotaccent
ENCODING 379
SWIDTH 667 0
DWIDTH 10 0
BBX 9 14 0 0
BITMAP
0800
0800
0000
7F80
4100
4200
0400
0800
0800
1000
2000
4100
8100
FF00
ENDCHAR
STARTCHAR zdotaccent
ENCODING 380
SWIDTH 463 0
DWIDTH 8 0
BBX 7 10 0 0
BITMAP
10
10
00
72
4C
08
10
20
44
BC
ENDCHAR
STARTCHAR Zcaron
ENCODING 381
SWIDTH 667 0
DWIDTH 10 0
BBX 9 14 0 0
BITMAP
1200
0C00
0000
7F80
4100
4200
0400
0800
0800
1000
2000
4100
8100
FF00
ENDCHAR
STARTCHAR zcaron
ENCODING 382
SWIDTH 463 0
DWIDTH 7 0
BBX 7 11 0 0
BITMAP
44
28
10
00
72
4C
08
10
20
44
BC
ENDCHAR
STARTCHAR uni0186
ENCODING 390
SWIDTH 722 0
DWIDTH 10 0
BBX 9 11 0 0
BITMAP
1E00
2100
4080
0080
0080
0080
0080
0100
8100
C200
BC00
ENDCHAR
STARTCHAR uni0189
ENCODING 393
SWIDTH 778 0
DWIDTH 11 0
BBX 10 11 0 0
BITMAP
7F00
2080
2040
2040
2040
F840
4040
4080
4080
4100
FE00
ENDCHAR
STARTCHAR uni018E
ENCODING 398
SWIDTH 722 0
DWIDTH 9 0
BBX 8 11 0 0
BITMAP
FF
82
82
02
22
3C
24
04
84
84
FE
ENDCHAR
STARTCHAR florin
ENCODING 402
SWIDTH 556 0
DWIDTH 8 0
BBX 9 14 -2 -3
BITMAP
0380
0480
0400
0400
1F00
0800
0800
0800
0800
1000
1000
1000
9000
E000
ENDCHAR
STARTCHAR uni0197
ENCODING 407
SWIDTH 407 0
DWIDTH 7 0
BBX 4 11 1 0
BITMAP
70
20
20
20
20
F0
40
40
40
40
E0
ENDCHAR
STARTCHAR uni019A
ENCODING 410
SWIDTH 333 0
DWIDTH 4 0
BBX 4 11 0 0
BITMAP
60
20
20
20
40
F0
40
80
80
A0
C0
ENDCHAR
STARTCHAR uni019D
ENCODING 413
SWIDTH 815 0
DWIDTH 12 0
BBX 13 14 -2 -3
BITMAP
1C38
0C10
0E10
0A10
0B10
0920
11A0
10A0
10E0
2060
2020
2000
A000
C000
ENDCHAR
STARTCHAR uni019F
ENCODING 415
SWIDTH 778 0
DWIDTH 10 0
BBX 9 11 0 0
BITMAP
1E00
2100
4080
4080
8080
FF80
8080
8100
8100
4200
3C00
ENDCHAR
STARTCHAR Ohorn
ENCODING 416
SWIDTH 778 0
DWIDTH 10 0
BBX 11 11 0 0
BITMAP
1E60
2120
40C0
4080
8080
8080
8080
8100
8100
4200
3C00
ENDCHAR
STARTCHAR ohorn
ENCODING 417
SWIDTH 500 0
DWIDTH 7 0
BBX 9 7 0 0
BITMAP
3980
4480
8500
8600
8400
8800
7000
ENDCHAR
STARTCHAR Uhorn
ENCODING 431
SWIDTH 815 0
DWIDTH 12 0
BBX 12 11 1 0
BITMAP
E1F0
4090
40A0
40C0
4080
8100
8100
8100
8100
4200
3C00
ENDCHAR
STARTCHAR uhorn
ENCODING 432
SWIDTH 611 0
DWIDTH 9 0
BBX 11 7 0 0
BITMAP
C260
4220
4240
8480
8C00
9500
6600
ENDCHAR
STARTCHAR uni01B5
ENCODING 437
SWIDTH 667 0
DWIDTH 10 0
BBX 9 11 0 0
BITMAP
7F80
4100
4200
0400
0800
1E00
1000
2000
4100
8100
FF00
ENDCHAR
STARTCHAR uni01B6
ENCODING 438
SWIDTH 463 0
DWIDTH 8 0
BBX 7 7 0 0
BITMAP
72
4C
08
3C
20
44
BC
ENDCHAR
STARTCHAR uni01BB
ENCODING 443
SWIDTH 556 0
DWIDTH 8 0
BBX 7 11 0 0
BITMAP
1C
22
42
62
04
FE
10
20
42
84
FC
ENDCHAR
STARTCHAR uni01BC
ENCODING 444
SWIDTH 556 0
DWIDTH 8 0
BBX 7 11 0 0
BITMAP
3E
20
20
40
78
44
04
04
C4
88
70
ENDCHAR
STARTCHAR uni01C0
ENCODING 448
SWIDTH 606 0
DWIDTH 8 0
BBX 1 11 3 0
BITMAP
80
80
80
80
80
80
80
80
80
80
80
ENDCHAR
STARTCHAR uni01C2
ENCODING 450
SWIDTH 606 0
DWIDTH 8 0
BBX 7 11 0 -1
BITMAP
10
10
10
10
FE
10
10
FE
10
10
10
ENDCHAR
STARTCHAR uni01C3
ENCODING 451
SWIDTH 333 0
DWIDTH 5 0
BBX 3 11 1 0
BITMAP
20
20
20
20
40
40
40
40
00
80
80
ENDCHAR
STARTCHAR uni01CD
ENCODING 461
SWIDTH 704 0
DWIDTH 11 0
BBX 10 15 0 0
BITMAP
1100
0A00
0400
0000
0400
0600
0A00
0A00
1300
1100
2100
3F80
4080
4080
E1C0
ENDCHAR
STARTCHAR uni01CE
ENCODING 462
SWIDTH 574 0
DWIDTH 9 0
BBX 8 11 0 0
BITMAP
22
14
08
00
3A
46
82
84
84
8D
76
ENDCHAR
STARTCHAR uni01CF
ENCODING 463
SWIDTH 407 0
DWIDTH 7 0
BBX 5 15 1 0
BITMAP
88
50
20
00
70
20
20
20
20
20
40
40
40
40
E0
ENDCHAR
STARTCHAR uni01D0
ENCODING 464
SWIDTH 333 0
DWIDTH 4 0
BBX 5 11 -1 0
BITMAP
88
50
20
00
60
20
20
40
40
50
60
ENDCHAR
STARTCHAR uni01D1
ENCODING 465
SWIDTH 778 0
DWIDTH 10 0
BBX 9 15 0 0
BITMAP
2200
1400
0800
0000
1E00
2100
4080
4080
8080
8080
8080
8100
8100
4200
3C00
ENDCHAR
STARTCHAR uni01D2
ENCODING 466
SWIDTH 500 0
DWIDTH 7 0
BBX 6 11 0 0
BITMAP
44
28
10
00
38
44
84
84
84
88
70
ENDCHAR
STARTCHAR uni01D3
ENCODING 467
SWIDTH 815 0
DWIDTH 12 0
BBX 10 15 1 0
BITMAP
1100
0A00
0400
0000
E1C0
4080
4080
4080
4080
8100
8100
8100
8100
4200
3C00
ENDCHAR
STARTCHAR uni01D4
ENCODING 468
SWIDTH 611 0
DWIDTH 9 0
BBX 8 11 0 0
BITMAP
44
28
10
00
C2
42
42
84
8C
95
66
ENDCHAR
STARTCHAR uni01D5
ENCODING 469
SWIDTH 815 0
DWIDTH 12 0
BBX 10 16 1 0
BITMAP
1F00
0000
1200
1200
0000
E1C0
4080
4080
4080
4080
8100
8100
8100
8100
4200
3C00
ENDCHAR
STARTCHAR uni01D6
ENCODING 470
SWIDTH 611 0
DWIDTH 9 0
BBX 8 12 0 0
BITMAP
3E
00
24
24
00
C2
42
42
84
8C
95
66
ENDCHAR
STARTCHAR uni01D7
ENCODING 471
SWIDTH 815 0
DWIDTH 12 0
BBX 10 18 1 0
BITMAP
0200
0400
0800
0000
1200
1200
0000
E1C0
4080
4080
4080
4080
8100
8100
8100
8100
4200
3C00
ENDCHAR
STARTCHAR uni01D8
ENCODING 472
SWIDTH 611 0
DWIDTH 9 0
BBX 8 14 0 0
BITMAP
04
08
10
00
24
24
00
C2
42
42
84
8C
95
66
ENDCHAR
STARTCHAR uni01D9
ENCODING 473
SWIDTH 815 0
DWIDTH 12 0
BBX 10 18 1 0
BITMAP
1100
0A00
0400
0000
1200
1200
0000
E1C0
4080
4080
4080
4080
8100
8100
8100
8100
4200
3C00
ENDCHAR
STARTCHAR uni01DA
ENCODING 474
SWIDTH 611 0
DWIDTH 9 0
BBX 8 14 0 0
BITMAP
22
14
08
00
24
24
00
C2
42
42
84
8C
95
66
ENDCHAR
STARTCHAR uni01DB
ENCODING 475
SWIDTH 815 0
DWIDTH 12 0
BBX 10 18 1 0
BITMAP
1000
0800
0400
0000
1200
1200
0000
E1C0
4080
4080
4080
4080
8100
8100
8100
8100
4200
3C00
ENDCHAR
STARTCHAR uni01DC
ENCODING 476
SWIDTH 611 0
DWIDTH 9 0
BBX 8 14 0 0
BITMAP
20
10
08
00
24
24
00
C2
42
42
84
8C
95
66
ENDCHAR
STARTCHAR uni01DD
ENCODING 477
SWIDTH 444 0
DWIDTH 6 0
BBX 5 7 0 0
BITMAP
70
88
08
38
48
90
E0
ENDCHAR
STARTCHAR uni01DE
ENCODING 478
SWIDTH 704 0
DWIDTH 11 0
BBX 10 16 0 0
BITMAP
1F00
0000
0900
0900
0000
0400
0600
0A00
0A00
1300
1100
2100
3F80
4080
4080
E1C0
ENDCHAR
STARTCHAR uni01DF
ENCODING 479
SWIDTH 574 0
DWIDTH 9 0
BBX 8 12 0 0
BITMAP
3E
00
24
24
00
3A
46
82
84
84
8D
76
ENDCHAR
STARTCHAR uni01E0
ENCODING 480
SWIDTH 704 0
DWIDTH 11 0
BBX 10 16 0 0
BITMAP
1F00
0000
0400
0400
0000
0400
0600
0A00
0A00
1300
1100
2100
3F80
4080
4080
E1C0
ENDCHAR
STARTCHAR uni01E1
ENCODING 481
SWIDTH 574 0
DWIDTH 9 0
BBX 8 12 0 0
BITMAP
3E
00
08
08
00
3A
46
82
84
84
8D
76
ENDCHAR
STARTCHAR uni01E2
ENCODING 482
SWIDTH 870 0
DWIDTH 14 0
BBX 13 13 0 0
BITMAP
07C0
0000
1FF8
0508
0908
0900
1120
11E0
3E20
2200
4208
4208
EFF8
ENDCHAR
STARTCHAR uni01E3
ENCODING 483
SWIDTH 722 0
DWIDTH 10 0
BBX 9 9 0 0
BITMAP
3E00
0000
7380
4C80
0900
7E00
8800
9880
6700
ENDCHAR
STARTCHAR uni01E4
ENCODING 484
SWIDTH 778 0
DWIDTH 10 0
BBX 9 11 0 0
BITMAP
1E80
2180
4080
4000
8000
8000
8380
8100
8780
4300
3D00
ENDCHAR
STARTCHAR uni01E5
ENCODING 485
SWIDTH 537 0
DWIDTH 7 0
BBX 9 11 -2 -3
BITMAP
0180
0E00
1100
2100
2200
1C00
2000
3C00
FF80
8200
7C00
ENDCHAR
STARTCHAR Gcaron
ENCODING 486
SWIDTH 778 0
DWIDTH 10 0
BBX 9 15 0 0
BITMAP
1100
0A00
0400
0000
1E80
2180
4080
4000
8000
8000
8380
8100
8100
4300
3D00
ENDCHAR
STARTCHAR gcaron
ENCODING 487
SWIDTH 537 0
DWIDTH 7 0
BBX 9 15 -2 -3
BITMAP
1100
0A00
0400
0000
0180
0E00
1100
2100
2200
1C00
2000
3C00
4200
8200
7C00
ENDCHAR
STARTCHAR uni01E8
ENCODING 488
SWIDTH 741 0
DWIDTH 10 0
BBX 9 15 0 0
BITMAP
2200
1400
0800
0000
7380
2100
2200
2400
2800
3800
4C00
4400
4600
4200
E700
ENDCHAR
STARTCHAR uni01E9
ENCODING 489
SWIDTH 556 0
DWIDTH 8 0
BBX 7 15 0 0
BITMAP
88
50
20
00
60
20
20
20
4C
52
64
58
90
92
8C
ENDCHAR
STARTCHAR uni01EA
ENCODING 490
SWIDTH 778 0
DWIDTH 10 0
BBX 9 14 0 -3
BITMAP
1E00
2100
4080
4080
8080
8080
8080
8100
8100
4200
3C00
0800
1000
1C00
ENDCHAR
STARTCHAR uni01EB
ENCODING 491
SWIDTH 500 0
DWIDTH 7 0
BBX 6 10 0 -3
BITMAP
38
44
84
84
84
88
70
20
40
70
ENDCHAR
STARTCHAR uni01EC
ENCODING 492
SWIDTH 778 0
DWIDTH 10 0
BBX 9 16 0 -3
BITMAP
3E00
0000
1E00
2100
4080
4080
8080
8080
8080
8100
8100
4200
3C00
0800
1000
1C00
ENDCHAR
STARTCHAR uni01ED
ENCODING 493
SWIDTH 500 0
DWIDTH 7 0
BBX 6 12 0 -3
BITMAP
7C
00
38
44
84
84
84
88
70
20
40
70
ENDCHAR
STARTCHAR uni01F0
ENCODING 496
SWIDTH 315 0
DWIDTH 4 0
BBX 6 14 -2 -3
BITMAP
44
28
10
00
30
10
10
10
10
20
20
20
A0
C0
ENDCHAR
STARTCHAR uni01F4
ENCODING 500
SWIDTH 778 0
DWIDTH 10 0
BBX 9 15 0 0
BITMAP
0200
0400
0800
0000
1E80
2180
4080
4000
8000
8000
8380
8100
8100
4300
3D00
ENDCHAR
STARTCHAR uni01F5
ENCODING 501
SWIDTH 537 0
DWIDTH 7 0
BBX 9 15 -2 -3
BITMAP
0100
0200
0400
0000
0180
0E00
1100
2100
2200
1C00
2000
3C00
4200
8200
7C00
ENDCHAR
STARTCHAR uni01F8
ENCODING 504
SWIDTH 815 0
DWIDTH 12 0
BBX 11 15 0 0
BITMAP
1000
0800
0400
0000
70E0
3040
3840
2840
2C40
2480
4680
4280
4380
4180
E080
ENDCHAR
STARTCHAR uni01F9
ENCODING 505
SWIDTH 611 0
DWIDTH 9 0
BBX 8 11 0 0
BITMAP
40
20
10
00
CC
52
62
42
84
85
86
ENDCHAR
STARTCHAR Aringacute
ENCODING 506
SWIDTH 704 0
DWIDTH 11 0
BBX 10 18 0 0
BITMAP
0100
0200
0400
0000
0600
0900
0600
0400
0600
0A00
0A00
1300
1100
2100
3F80
4080
4080
E1C0
ENDCHAR
STARTCHAR aringacute
ENCODING 507
SWIDTH 574 0
DWIDTH 9 0
BBX 8 15 0 0
BITMAP
04
08
10
00
18
24
18
00
3A
46
82
84
84
8D
76
ENDCHAR
STARTCHAR AEacute
ENCODING 508
SWIDTH 870 0
DWIDTH 14 0
BBX 13 15 0 0
BITMAP
0040
0080
0100
0000
1FF8
0508
0908
0900
1120
11E0
3E20
2200
4208
4208
EFF8
ENDCHAR
STARTCHAR aeacute
ENCODING 509
SWIDTH 722 0
DWIDTH 10 0
BBX 9 11 0 0
BITMAP
0200
0400
0800
0000
7380
4C80
0900
7E00
8800
9880
6700
ENDCHAR
STARTCHAR Oslashacute
ENCODING 510
SWIDTH 778 0
DWIDTH 10 0
BBX 9 15 0 0
BITMAP
0200
0400
0800
0000
1E80
2100
4280
4480
8480
8880
9080
9100
A100
4200
BC00
ENDCHAR
STARTCHAR oslashacute
ENCODING 511
SWIDTH 500 0
DWIDTH 7 0
BBX 6 13 0 -1
BITMAP
04
08
10
00
04
38
4C
94
94
A4
C8
70
80
ENDCHAR
STARTCHAR Scommaaccent
ENCODING 536
SWIDTH 667 0
DWIDTH 10 0
BBX 9 16 0 -5
BITMAP
1E80
2180
4080
6000
3800
0E00
0300
0100
8100
C200
BC00
0000
1800
0800
1000
2000
ENDCHAR
STARTCHAR scommaaccent
ENCODING 537
SWIDTH 444 0
DWIDTH 7 0
BBX 6 12 0 -5
BITMAP
3C
44
40
30
08
88
F0
00
30
10
20
40
ENDCHAR
STARTCHAR Tcommaaccent
ENCODING 538
SWIDTH 685 0
DWIDTH 10 0
BBX 9 16 0 -5
BITMAP
FF80
8880
8880
0800
0800
0800
1000
1000
1000
1000
3800
0000
1800
0800
1000
2000
ENDCHAR
STARTCHAR tcommaaccent
ENCODING 539
SWIDTH 352 0
DWIDTH 5 0
BBX 5 14 0 -5
BITMAP
20
20
F8
40
40
40
80
A0
C0
00
60
20
40
80
ENDCHAR
STARTCHAR uni021E
ENCODING 542
SWIDTH 833 0
DWIDTH 11 0
BBX 10 15 0 0
BITMAP
1100
0A00
0400
0000
71C0
2080
2080
2080
2080
3F00
4100
4100
4100
4100
E380
ENDCHAR
STARTCHAR uni021F
ENCODING 543
SWIDTH 611 0
DWIDTH 9 0
BBX 8 15 0 0
BITMAP
88
50
20
00
60
20
20
20
4C
52
62
42
84
85
86
ENDCHAR
STARTCHAR uni0226
ENCODING 550
SWIDTH 704 0
DWIDTH 11 0
BBX 10 14 0 0
BITMAP
0400
0400
0000
0400
0600
0A00
0A00
1300
1100
2100
3F80
4080
4080
E1C0
ENDCHAR
STARTCHAR uni0227
ENCODING 551
SWIDTH 574 0
DWIDTH 9 0
BBX 8 10 0 0
BITMAP
08
08
00
3A
46
82
84
84
8D
76
ENDCHAR
STARTCHAR uni0228
ENCODING 552
SWIDTH 722 0
DWIDTH 9 0
BBX 8 14 0 -3
BITMAP
7F
21
21
20
24
3C
44
40
41
41
FF
08
04
18
ENDCHAR
STARTCHAR uni0229
ENCODING 553
SWIDTH 444 0
DWIDTH 6 0
BBX 5 10 0 -3
BITMAP
38
48
90
E0
80
88
70
20
10
60
ENDCHAR
STARTCHAR uni022A
ENCODING 554
SWIDTH 778 0
DWIDTH 10 0
BBX 9 16 0 0
BITMAP
1F00
0000
0900
0900
0000
1E00
2100
4080
4080
8080
8080
8080
8100
8100
4200
3C00
ENDCHAR
STARTCHAR uni022B
ENCODING 555
SWIDTH 500 0
DWIDTH 7 0
BBX 6 12 0 0
BITMAP
7C
00
24
24
00
38
44
84
84
84
88
70
ENDCHAR
STARTCHAR uni022C
ENCODING 556
SWIDTH 778 0
DWIDTH 10 0
BBX 9 16 0 0
BITMAP
3E00
0000
1900
2600
0000
1E00
2100
4080
4080
8080
8080
8080
8100
8100
4200
3C00
ENDCHAR
STARTCHAR uni022D
ENCODING 557
SWIDTH 500 0
DWIDTH 7 0
BBX 6 12 0 0
BITMAP
7C
00
64
98
00
38
44
84
84
84
88
70
ENDCHAR
STARTCHAR uni022E
ENCODING 558
SWIDTH 778 0
DWIDTH 10 0
BBX 9 14 0 0
BITMAP
0800
0800
0000
1E00
2100
4080
4080
8080
8080
8080
8100
8100
4200
3C00
ENDCHAR
STARTCHAR uni022F
ENCODING 559
SWIDTH 500 0
DWIDTH 7 0
BBX 6 10 0 0
BITMAP
10
10
00
38
44
84
84
84
88
70
ENDCHAR
STARTCHAR uni0230
ENCODING 560
SWIDTH 778 0
DWIDTH 10 0
BBX 9 16 0 0
BITMAP
3E00
0000
0800
0800
0000
1E00
2100
4080
4080
8080
8080
8080
8100
8100
4200
3C00
ENDCHAR
STARTCHAR uni0231
ENCODING 561
SWIDTH 500 0
DWIDTH 7 0
BBX 6 12 0 0
BITMAP
7C
00
10
10
00
38
44
84
84
84
88
70
ENDCHAR
STARTCHAR uni0232
ENCODING 562
SWIDTH 685 0
DWIDTH 9 0
BBX 9 13 0 0
BITMAP
3E00
0000
E380
4100
6200
2400
3800
1000
1000
2000
2000
2000
7000
ENDCHAR
STARTCHAR uni0233
ENCODING 563
SWIDTH 500 0
DWIDTH 7 0
BBX 7 12 -1 -3
BITMAP
7C
00
C6
42
64
24
28
30
10
20
A0
C0
ENDCHAR
STARTCHAR uni0250
ENCODING 592
SWIDTH 574 0
DWIDTH 9 0
BBX 8 7 0 0
BITMAP
6E
B1
21
21
41
62
5C
ENDCHAR
STARTCHAR uni0259
ENCODING 601
SWIDTH 444 0
DWIDTH 6 0
BBX 5 7 0 0
BITMAP
70
88
08
38
48
90
E0
ENDCHAR
STARTCHAR uni025F
ENCODING 607
SWIDTH 333 0
DWIDTH 5 0
BBX 5 14 0 -7
BITMAP
08
08
08
08
08
10
10
10
10
F8
20
20
A0
C0
ENDCHAR
STARTCHAR uni0265
ENCODING 613
SWIDTH 611 0
DWIDTH 9 0
BBX 8 11 0 -4
BITMAP
61
A1
21
42
46
4A
32
04
04
04
06
ENDCHAR
STARTCHAR uni0275
ENCODING 629
SWIDTH 500 0
DWIDTH 7 0
BBX 6 7 0 0
BITMAP
38
44
84
FC
84
88
70
ENDCHAR
STARTCHAR uni0279
ENCODING 633
SWIDTH 444 0
DWIDTH 7 0
BBX 6 7 0 0
BITMAP
04
04
04
08
18
A8
CC
ENDCHAR
STARTCHAR uni0287
ENCODING 647
SWIDTH 352 0
DWIDTH 5 0
BBX 5 9 0 0
BITMAP
18
28
08
10
10
10
F8
20
20
ENDCHAR
STARTCHAR uni0289
ENCODING 649
SWIDTH 611 0
DWIDTH 9 0
BBX 8 7 0 0
BITMAP
C2
42
42
FF
8C
95
66
ENDCHAR
STARTCHAR uni028C
ENCODING 652
SWIDTH 519 0
DWIDTH 7 0
BBX 6 7 0 0
BITMAP
18
24
44
84
88
88
CC
ENDCHAR
STARTCHAR uni028D
ENCODING 653
SWIDTH 778 0
DWIDTH 11 0
BBX 10 7 0 0
BITMAP
1980
2640
4440
8440
8880
8880
C8C0
ENDCHAR
STARTCHAR uni028E
ENCODING 654
SWIDTH 500 0
DWIDTH 7 0
BBX 7 10 -1 0
BITMAP
06
0A
08
10
18
28
48
4C
84
C6
ENDCHAR
STARTCHAR uni029E
ENCODING 670
SWIDTH 556 0
DWIDTH 8 0
BBX 7 11 0 -4
BITMAP
62
92
12
34
4C
94
64
08
08
08
0C
ENDCHAR
STARTCHAR uni02BB
ENCODING 699
SWIDTH 204 0
DWIDTH 4 0
BBX 3 4 1 7
BITMAP
20
40
80
C0
ENDCHAR
STARTCHAR afii57929
ENCODING 700
SWIDTH 204 0
DWIDTH 4 0
BBX 3 4 0 7
BITMAP
60
20
40
80
ENDCHAR
STARTCHAR afii64937
ENCODING 701
SWIDTH 204 0
DWIDTH 4 0
BBX 3 4 0 7
BITMAP
C0
80
40
20
ENDCHAR
STARTCHAR circumflex
ENCODING 710
SWIDTH 333 0
DWIDTH 6 0
BBX 5 3 0 8
BITMAP
20
50
88
ENDCHAR
STARTCHAR caron
ENCODING 711
SWIDTH 333 0
DWIDTH 6 0
BBX 5 3 0 8
BITMAP
88
50
20
ENDCHAR
STARTCHAR uni02C8
ENCODING 712
SWIDTH 278 0
DWIDTH 4 0
BBX 1 4 1 7
BITMAP
80
80
80
80
ENDCHAR
STARTCHAR macron
ENCODING 713
SWIDTH 333 0
DWIDTH 6 0
BBX 5 1 0 8
BITMAP
F8
ENDCHAR
STARTCHAR uni02CA
ENCODING 714
SWIDTH 333 0
DWIDTH 4 0
BBX 3 3 0 8
BITMAP
20
40
80
ENDCHAR
STARTCHAR uni02CB
ENCODING 715
SWIDTH 333 0
DWIDTH 4 0
BBX 3 3 0 8
BITMAP
80
40
20
ENDCHAR
STARTCHAR uni02CD
ENCODING 717
SWIDTH 333 0
DWIDTH 6 0
BBX 5 1 0 -2
BITMAP
F8
ENDCHAR
STARTCHAR uni02CE
ENCODING 718
SWIDTH 333 0
DWIDTH 4 0
BBX 3 3 0 -4
BITMAP
80
40
20
ENDCHAR
STARTCHAR uni02CF
ENCODING 719
SWIDTH 333 0
DWIDTH 4 0
BBX 3 3 0 -4
BITMAP
20
40
80
ENDCHAR
STARTCHAR breve
ENCODING 728
SWIDTH 333 0
DWIDTH 5 0
BBX 4 3 0 8
BITMAP
90
90
60
ENDCHAR
STARTCHAR dotaccent
ENCODING 729
SWIDTH 333 0
DWIDTH 4 0
BBX 1 2 1 8
BITMAP
80
80
ENDCHAR
STARTCHAR ring
ENCODING 730
SWIDTH 333 0
DWIDTH 5 0
BBX 4 3 0 8
BITMAP
60
90
60
ENDCHAR
STARTCHAR ogonek
ENCODING 731
SWIDTH 333 0
DWIDTH 4 0
BBX 3 3 0 -3
BITMAP
40
80
E0
ENDCHAR
STARTCHAR tilde
ENCODING 732
SWIDTH 333 0
DWIDTH 7 0
BBX 6 2 0 8
BITMAP
64
98
ENDCHAR
STARTCHAR hungarumlaut
ENCODING 733
SWIDTH 333 0
DWIDTH 7 0
BBX 6 3 0 8
BITMAP
24
48
90
ENDCHAR
STARTCHAR uni02EE
ENCODING 750
SWIDTH 389 0
DWIDTH 7 0
BBX 6 4 0 7
BITMAP
6C
24
48
90
ENDCHAR
STARTCHAR uni037E
ENCODING 894
SWIDTH 278 0
DWIDTH 4 0
BBX 4 9 -1 -2
BITMAP
10
10
00
00
00
60
20
40
80
ENDCHAR
STARTCHAR tonos
ENCODING 900
SWIDTH 333 0
DWIDTH 4 0
BBX 3 3 0 8
BITMAP
20
40
80
ENDCHAR
STARTCHAR dieresistonos
ENCODING 901
SWIDTH 333 0
DWIDTH 7 0
BBX 4 6 1 8
BITMAP
10
20
40
00
90
90
ENDCHAR
STARTCHAR anoteleia
ENCODING 903
SWIDTH 278 0
DWIDTH 5 0
BBX 2 2 1 4
BITMAP
C0
C0
ENDCHAR
STARTCHAR mu
ENCODING 956
SWIDTH 611 0
DWIDTH 9 0
BBX 9 10 -1 -3
BITMAP
6100
2100
2100
4200
4600
4A80
B300
8000
8000
C000
ENDCHAR
STARTCHAR uni1E00
ENCODING 7680
SWIDTH 704 0
DWIDTH 11 0
BBX 10 15 0 -4
BITMAP
0400
0600
0A00
0A00
1300
1100
2100
3F80
4080
4080
E1C0
0000
0C00
1200
0C00
ENDCHAR
STARTCHAR uni1E01
ENCODING 7681
SWIDTH 574 0
DWIDTH 9 0
BBX 8 11 0 -4
BITMAP
3A
46
82
84
84
8D
76
00
18
24
18
ENDCHAR
STARTCHAR uni1E02
ENCODING 7682
SWIDTH 722 0
DWIDTH 9 0
BBX 8 14 0 0
BITMAP
08
08
00
7E
21
21
21
22
3C
42
41
41
42
FC
ENDCHAR
STARTCHAR uni1E03
ENCODING 7683
SWIDTH 556 0
DWIDTH 7 0
BBX 6 14 0 0
BITMAP
20
20
00
60
20
20
40
58
64
44
84
84
88
70
ENDCHAR
STARTCHAR uni1E04
ENCODING 7684
SWIDTH 722 0
DWIDTH 9 0
BBX 8 14 0 -3
BITMAP
7E
21
21
21
22
3C
42
41
41
42
FC
00
10
10
ENDCHAR
STARTCHAR uni1E05
ENCODING 7685
SWIDTH 556 0
DWIDTH 7 0
BBX 6 14 0 -3
BITMAP
60
20
20
40
58
64
44
84
84
88
70
00
20
20
ENDCHAR
STARTCHAR uni1E06
ENCODING 7686
SWIDTH 722 0
DWIDTH 9 0
BBX 8 13 0 -2
BITMAP
7E
21
21
21
22
3C
42
41
41
42
FC
00
7C
ENDCHAR
STARTCHAR uni1E07
ENCODING 7687
SWIDTH 556 0
DWIDTH 7 0
BBX 6 13 0 -2
BITMAP
60
20
20
40
58
64
44
84
84
88
70
00
F8
ENDCHAR
STARTCHAR uni1E08
ENCODING 7688
SWIDTH 722 0
DWIDTH 10 0
BBX 9 18 0 -3
BITMAP
0200
0400
0800
0000
1E80
2180
4080
4000
8000
8000
8000
8000
8100
4200
3C00
1000
0800
3000
ENDCHAR
STARTCHAR uni1E09
ENCODING 7689
SWIDTH 444 0
DWIDTH 6 0
BBX 5 14 0 -3
BITMAP
08
10
20
00
38
48
80
80
80
88
70
20
10
60
ENDCHAR
STARTCHAR uni1E0A
ENCODING 7690
SWIDTH 778 0
DWIDTH 11 0
BBX 10 14 0 0
BITMAP
0800
0800
0000
7F00
2080
2040
2040
2040
2040
4040
4080
4080
4100
FE00
ENDCHAR
STARTCHAR uni1E0B
ENCODING 7691
SWIDTH 611 0
DWIDTH 9 0
BBX 8 14 0 0
BITMAP
02
02
00
03
01
01
02
3A
46
82
84
84
8D
76
ENDCHAR
STARTCHAR uni1E0C
ENCODING 7692
SWIDTH 778 0
DWIDTH 11 0
BBX 10 14 0 -3
BITMAP
7F00
2080
2040
2040
2040
2040
4040
4080
4080
4100
FE00
0000
0800
0800
ENDCHAR
STARTCHAR uni1E0D
ENCODING 7693
SWIDTH 611 0
DWIDTH 9 0
BBX 8 14 0 -3
BITMAP
03
01
01
02
3A
46
82
84
84
8D
76
00
10
10
ENDCHAR
STARTCHAR uni1E0E
ENCODING 7694
SWIDTH 778 0
DWIDTH 11 0
BBX 10 13 0 -2
BITMAP
7F00
2080
2040
2040
2040
2040
4040
4080
4080
4100
FE00
0000
3E00
ENDCHAR
STARTCHAR uni1E0F
ENCODING 7695
SWIDTH 611 0
DWIDTH 9 0
BBX 8 13 0 -2
BITMAP
03
01
01
02
3A
46
82
84
84
8D
76
00
7C
ENDCHAR
STARTCHAR uni1E10
ENCODING 7696
SWIDTH 778 0
DWIDTH 11 0
BBX 10 14 0 -3
BITMAP
7F00
2080
2040
2040
2040
2040
4040
4080
4080
4100
FE00
0800
0400
1800
ENDCHAR
STARTCHAR uni1E11
ENCODING 7697
SWIDTH 611 0
DWIDTH 9 0
BBX 8 14 0 -3
BITMAP
03
01
01
02
3A
46
82
84
84
8D
76
10
08
30
ENDCHAR
STARTCHAR uni1E12
ENCODING 7698
SWIDTH 778 0
DWIDTH 11 0
BBX 10 15 0 -4
BITMAP
7F00
2080
2040
2040
2040
2040
4040
4080
4080
4100
FE00
0000
0800
1400
2200
ENDCHAR
STARTCHAR uni1E13
ENCODING 7699
SWIDTH 611 0
DWIDTH 9 0
BBX 8 15 0 -4
BITMAP
03
01
01
02
3A
46
82
84
84
8D
76
00
10
28
44
ENDCHAR
STARTCHAR uni1E14
ENCODING 7700
SWIDTH 722 0
DWIDTH 9 0
BBX 8 17 0 0
BITMAP
20
10
08
00
3E
00
7F
21
21
20
24
3C
44
40
41
41
FF
ENDCHAR
STARTCHAR uni1E15
ENCODING 7701
SWIDTH 444 0
DWIDTH 6 0
BBX 6 13 0 0
BITMAP
40
20
10
00
7C
00
38
48
90
E0
80
88
70
ENDCHAR
STARTCHAR uni1E16
ENCODING 7702
SWIDTH 722 0
DWIDTH 9 0
BBX 8 17 0 0
BITMAP
02
04
08
00
3E
00
7F
21
21
20
24
3C
44
40
41
41
FF
ENDCHAR
STARTCHAR uni1E17
ENCODING 7703
SWIDTH 444 0
DWIDTH 6 0
BBX 6 13 0 0
BITMAP
04
08
10
00
7C
00
38
48
90
E0
80
88
70
ENDCHAR
STARTCHAR uni1E18
ENCODING 7704
SWIDTH 722 0
DWIDTH 9 0
BBX 8 15 0 -4
BITMAP
7F
21
21
20
24
3C
44
40
41
41
FF
00
08
14
22
ENDCHAR
STARTCHAR uni1E19
ENCODING 7705
SWIDTH 444 0
DWIDTH 6 0
BBX 5 11 0 -4
BITMAP
38
48
90
E0
80
88
70
00
20
50
88
ENDCHAR
STARTCHAR uni1E1A
ENCODING 7706
SWIDTH 722 0
DWIDTH 9 0
BBX 8 14 0 -3
BITMAP
7F
21
21
20
24
3C
44
40
41
41
FF
00
32
4C
ENDCHAR
STARTCHAR uni1E1B
ENCODING 7707
SWIDTH 444 0
DWIDTH 6 0
BBX 6 10 -1 -3
BITMAP
1C
24
48
70
40
44
38
00
64
98
ENDCHAR
STARTCHAR uni1E1C
ENCODING 7708
SWIDTH 722 0
DWIDTH 9 0
BBX 8 18 0 -3
BITMAP
24
24
18
00
7F
21
21
20
24
3C
44
40
41
41
FF
08
04
18
ENDCHAR
STARTCHAR uni1E1D
ENCODING 7709
SWIDTH 444 0
DWIDTH 6 0
BBX 5 14 0 -3
BITMAP
48
48
30
00
38
48
90
E0
80
88
70
20
10
60
ENDCHAR
STARTCHAR uni1E1E
ENCODING 7710
SWIDTH 667 0
DWIDTH 8 0
BBX 8 14 0 0
BITMAP
08
08
00
7F
21
21
20
24
3C
44
40
40
40
E0
ENDCHAR
STARTCHAR uni1E1F
ENCODING 7711
SWIDTH 333 0
DWIDTH 5 0
BBX 5 17 0 -3
BITMAP
10
10
00
18
28
20
20
F8
40
40
40
40
80
80
80
80
80
ENDCHAR
STARTCHAR uni1E20
ENCODING 7712
SWIDTH 778 0
DWIDTH 10 0
BBX 9 13 0 0
BITMAP
1F00
0000
1E80
2180
4080
4000
8000
8000
8380
8100
8100
4300
3D00
ENDCHAR
STARTCHAR uni1E21
ENCODING 7713
SWIDTH 537 0
DWIDTH 7 0
BBX 9 13 -2 -3
BITMAP
1F00
0000
0180
0E00
1100
2100
2200
1C00
2000
3C00
4200
8200
7C00
ENDCHAR
STARTCHAR uni1E22
ENCODING 7714
SWIDTH 833 0
DWIDTH 11 0
BBX 10 14 0 0
BITMAP
0400
0400
0000
71C0
2080
2080
2080
2080
3F00
4100
4100
4100
4100
E380
ENDCHAR
STARTCHAR uni1E23
ENCODING 7715
SWIDTH 611 0
DWIDTH 9 0
BBX 8 14 0 0
BITMAP
20
20
00
60
20
20
20
4C
52
62
42
84
85
86
ENDCHAR
STARTCHAR uni1E24
ENCODING 7716
SWIDTH 833 0
DWIDTH 11 0
BBX 10 14 0 -3
BITMAP
71C0
2080
2080
2080
2080
3F00
4100
4100
4100
4100
E380
0000
0800
0800
ENDCHAR
STARTCHAR uni1E25
ENCODING 7717
SWIDTH 611 0
DWIDTH 9 0
BBX 8 14 0 -3
BITMAP
60
20
20
20
4C
52
62
42
84
85
86
00
08
08
ENDCHAR
STARTCHAR uni1E26
ENCODING 7718
SWIDTH 833 0
DWIDTH 11 0
BBX 10 14 0 0
BITMAP
1200
1200
0000
71C0
2080
2080
2080
2080
3F00
4100
4100
4100
4100
E380
ENDCHAR
STARTCHAR uni1E27
ENCODING 7719
SWIDTH 611 0
DWIDTH 9 0
BBX 8 14 0 0
BITMAP
48
48
00
60
20
20
20
4C
52
62
42
84
85
86
ENDCHAR
STARTCHAR uni1E28
ENCODING 7720
SWIDTH 833 0
DWIDTH 11 0
BBX 10 14 0 -3
BITMAP
71C0
2080
2080
2080
2080
3F00
4100
4100
4100
4100
E380
0800
0400
1800
ENDCHAR
STARTCHAR uni1E29
ENCODING 7721
SWIDTH 611 0
DWIDTH 9 0
BBX 8 14 0 -3
BITMAP
60
20
20
20
4C
52
62
42
84
85
86
08
04
18
ENDCHAR
STARTCHAR uni1E2A
ENCODING 7722
SWIDTH 833 0
DWIDTH 11 0
BBX 10 15 0 -4
BITMAP
71C0
2080
2080
2080
2080
3F00
4100
4100
4100
4100
E380
0000
1200
1200
0C00
ENDCHAR
STARTCHAR uni1E2B
ENCODING 7723
SWIDTH 611 0
DWIDTH 9 0
BBX 8 15 0 -4
BITMAP
60
20
20
20
4C
52
62
42
84
85
86
00
24
24
18
ENDCHAR
STARTCHAR uni1E2C
ENCODING 7724
SWIDTH 407 0
DWIDTH 7 0
BBX 6 14 0 -3
BITMAP
38
10
10
10
10
10
20
20
20
20
70
00
64
98
ENDCHAR
STARTCHAR uni1E2D
ENCODING 7725
SWIDTH 333 0
DWIDTH 4 0
BBX 6 14 -2 -3
BITMAP
08
08
00
00
30
10
10
20
20
28
30
00
64
98
ENDCHAR
STARTCHAR uni1E2E
ENCODING 7726
SWIDTH 407 0
DWIDTH 7 0
BBX 5 18 1 0
BITMAP
08
10
20
00
48
48
00
70
20
20
20
20
20
40
40
40
40
E0
ENDCHAR
STARTCHAR uni1E2F
ENCODING 7727
SWIDTH 333 0
DWIDTH 4 0
BBX 4 14 0 0
BITMAP
10
20
40
00
90
90
00
C0
40
40
80
80
A0
C0
ENDCHAR
STARTCHAR uni1E30
ENCODING 7728
SWIDTH 741 0
DWIDTH 10 0
BBX 9 15 0 0
BITMAP
0200
0400
0800
0000
7380
2100
2200
2400
2800
3800
4C00
4400
4600
4200
E700
ENDCHAR
STARTCHAR uni1E31
ENCODING 7729
SWIDTH 556 0
DWIDTH 8 0
BBX 7 15 0 0
BITMAP
08
10
20
00
60
20
20
20
4C
52
64
58
90
92
8C
ENDCHAR
STARTCHAR uni1E32
ENCODING 7730
SWIDTH 741 0
DWIDTH 10 0
BBX 9 14 0 -3
BITMAP
7380
2100
2200
2400
2800
3800
4C00
4400
4600
4200
E700
0000
0800
0800
ENDCHAR
STARTCHAR uni1E33
ENCODING 7731
SWIDTH 556 0
DWIDTH 8 0
BBX 7 14 0 -3
BITMAP
60
20
20
20
4C
52
64
58
90
92
8C
00
10
10
ENDCHAR
STARTCHAR uni1E34
ENCODING 7732
SWIDTH 741 0
DWIDTH 10 0
BBX 9 13 0 -2
BITMAP
7380
2100
2200
2400
2800
3800
4C00
4400
4600
4200
E700
0000
3E00
ENDCHAR
STARTCHAR uni1E35
ENCODING 7733
SWIDTH 556 0
DWIDTH 8 0
BBX 7 13 0 -2
BITMAP
60
20
20
20
4C
52
64
58
90
92
8C
00
7C
ENDCHAR
STARTCHAR uni1E36
ENCODING 7734
SWIDTH 667 0
DWIDTH 9 0
BBX 8 14 0 -3
BITMAP
70
20
20
20
20
20
40
40
41
41
FF
00
08
08
ENDCHAR
STARTCHAR uni1E37
ENCODING 7735
SWIDTH 333 0
DWIDTH 4 0
BBX 3 14 0 -3
BITMAP
60
20
20
20
40
40
40
80
80
A0
C0
00
40
40
ENDCHAR
STARTCHAR uni1E38
ENCODING 7736
SWIDTH 667 0
DWIDTH 9 0
BBX 8 16 0 -3
BITMAP
7C
00
70
20
20
20
20
20
40
40
41
41
FF
00
08
08
ENDCHAR
STARTCHAR uni1E39
ENCODING 7737
SWIDTH 333 0
DWIDTH 4 0
BBX 5 16 0 -3
BITMAP
F8
00
60
20
20
20
40
40
40
80
80
A0
C0
00
40
40
ENDCHAR
STARTCHAR uni1E3A
ENCODING 7738
SWIDTH 667 0
DWIDTH 9 0
BBX 8 13 0 -2
BITMAP
70
20
20
20
20
20
40
40
41
41
FF
00
3E
ENDCHAR
STARTCHAR uni1E3B
ENCODING 7739
SWIDTH 333 0
DWIDTH 4 0
BBX 5 13 -1 -2
BITMAP
30
10
10
10
20
20
20
40
40
50
60
00
F8
ENDCHAR
STARTCHAR uni1E3C
ENCODING 7740
SWIDTH 667 0
DWIDTH 9 0
BBX 8 15 0 -4
BITMAP
70
20
20
20
20
20
40
40
41
41
FF
00
08
14
22
ENDCHAR
STARTCHAR uni1E3D
ENCODING 7741
SWIDTH 333 0
DWIDTH 4 0
BBX 5 15 -1 -4
BITMAP
30
10
10
10
20
20
20
40
40
50
60
00
20
50
88
ENDCHAR
STARTCHAR uni1E3E
ENCODING 7742
SWIDTH 944 0
DWIDTH 14 0
BBX 13 15 0 0
BITMAP
0080
0100
0200
0000
7038
3030
3850
2850
2890
2C90
4520
4520
4620
4220
E270
ENDCHAR
STARTCHAR uni1E3F
ENCODING 7743
SWIDTH 889 0
DWIDTH 14 0
BBX 13 11 0 0
BITMAP
0100
0200
0400
0000
CC60
5290
6310
4210
8420
8428
8430
ENDCHAR
STARTCHAR uni1E40
ENCODING 7744
SWIDTH 944 0
DWIDTH 14 0
BBX 13 14 0 0
BITMAP
0200
0200
0000
7038
3030
3850
2850
2890
2C90
4520
4520
4620
4220
E270
ENDCHAR
STARTCHAR uni1E41
ENCODING 7745
SWIDTH 889 0
DWIDTH 14 0
BBX 13 10 0 0
BITMAP
0200
0200
0000
CC60
5290
6310
4210
8420
8428
8430
ENDCHAR
STARTCHAR uni1E42
ENCODING 7746
SWIDTH 944 0
DWIDTH 14 0
BBX 13 14 0 -3
BITMAP
7038
3030
3850
2850
2890
2C90
4520
4520
4620
4220
E270
0000
0200
0200
ENDCHAR
STARTCHAR uni1E43
ENCODING 7747
SWIDTH 889 0
DWIDTH 14 0
BBX 13 10 0 -3
BITMAP
CC60
5290
6310
4210
8420
8428
8430
0000
0200
0200
ENDCHAR
STARTCHAR uni1E44
ENCODING 7748
SWIDTH 815 0
DWIDTH 12 0
BBX 11 14 0 0
BITMAP
0400
0400
0000
70E0
3040
3840
2840
2C40
2480
4680
4280
4380
4180
E080
ENDCHAR
STARTCHAR uni1E45
ENCODING 7749
SWIDTH 611 0
DWIDTH 9 0
BBX 8 10 0 0
BITMAP
10
10
00
CC
52
62
42
84
85
86
ENDCHAR
STARTCHAR uni1E46
ENCODING 7750
SWIDTH 815 0
DWIDTH 12 0
BBX 11 14 0 -3
BITMAP
70E0
3040
3840
2840
2C40
2480
4680
4280
4380
4180
E080
0000
0400
0400
ENDCHAR
STARTCHAR uni1E47
ENCODING 7751
SWIDTH 611 0
DWIDTH 9 0
BBX 8 10 0 -3
BITMAP
CC
52
62
42
84
85
86
00
08
08
ENDCHAR
STARTCHAR uni1E48
ENCODING 7752
SWIDTH 815 0
DWIDTH 12 0
BBX 11 13 0 -2
BITMAP
70E0
3040
3840
2840
2C40
2480
4680
4280
4380
4180
E080
0000
1F00
ENDCHAR
STARTCHAR uni1E49
ENCODING 7753
SWIDTH 611 0
DWIDTH 9 0
BBX 8 9 0 -2
BITMAP
CC
52
62
42
84
85
86
00
3E
ENDCHAR
STARTCHAR uni1E4A
ENCODING 7754
SWIDTH 815 0
DWIDTH 12 0
BBX 11 15 0 -4
BITMAP
70E0
3040
3840
2840
2C40
2480
4680
4280
4380
4180
E080
0000
0400
0A00
1100
ENDCHAR
STARTCHAR uni1E4B
ENCODING 7755
SWIDTH 611 0
DWIDTH 9 0
BBX 8 11 0 -4
BITMAP
CC
52
62
42
84
85
86
00
08
14
22
ENDCHAR
STARTCHAR uni1E4C
ENCODING 7756
SWIDTH 778 0
DWIDTH 10 0
BBX 9 18 0 0
BITMAP
0200
0400
0800
0000
1900
2600
0000
1E00
2100
4080
4080
8080
8080
8080
8100
8100
4200
3C00
ENDCHAR
STARTCHAR uni1E4D
ENCODING 7757
SWIDTH 500 0
DWIDTH 7 0
BBX 6 14 0 0
BITMAP
08
10
20
00
64
98
00
38
44
84
84
84
88
70
ENDCHAR
STARTCHAR uni1E4E
ENCODING 7758
SWIDTH 778 0
DWIDTH 10 0
BBX 9 17 0 0
BITMAP
1200
1200
0000
1900
2600
0000
1E00
2100
4080
4080
8080
8080
8080
8100
8100
4200
3C00
ENDCHAR
STARTCHAR uni1E4F
ENCODING 7759
SWIDTH 500 0
DWIDTH 7 0
BBX 6 13 0 0
BITMAP
48
48
00
64
98
00
38
44
84
84
84
88
70
ENDCHAR
STARTCHAR uni1E50
ENCODING 7760
SWIDTH 778 0
DWIDTH 10 0
BBX 9 17 0 0
BITMAP
1000
0800
0400
0000
3E00
0000
1E00
2100
4080
4080
8080
8080
8080
8100
8100
4200
3C00
ENDCHAR
STARTCHAR uni1E51
ENCODING 7761
SWIDTH 500 0
DWIDTH 7 0
BBX 6 13 0 0
BITMAP
40
20
10
00
7C
00
38
44
84
84
84
88
70
ENDCHAR
STARTCHAR uni1E52
ENCODING 7762
SWIDTH 778 0
DWIDTH 10 0
BBX 9 17 0 0
BITMAP
0200
0400
0800
0000
3E00
0000
1E00
2100
4080
4080
8080
8080
8080
8100
8100
4200
3C00
ENDCHAR
STARTCHAR uni1E53
ENCODING 7763
SWIDTH 500 0
DWIDTH 7 0
BBX 6 13 0 0
BITMAP
04
08
10
00
7C
00
38
44
84
84
84
88
70
ENDCHAR
STARTCHAR uni1E54
ENCODING 7764
SWIDTH 667 0
DWIDTH 10 0
BBX 9 15 0 0
BITMAP
0200
0400
0800
0000
7F00
2080
2080
2080
2100
3E00
4000
4000
4000
4000
E000
ENDCHAR
STARTCHAR uni1E55
ENCODING 7765
SWIDTH 574 0
DWIDTH 7 0
BBX 8 14 -2 -3
BITMAP
02
04
08
00
36
19
11
21
21
32
2C
40
40
E0
ENDCHAR
STARTCHAR uni1E56
ENCODING 7766
SWIDTH 667 0
DWIDTH 10 0
BBX 9 14 0 0
BITMAP
0800
0800
0000
7F00
2080
2080
2080
2100
3E00
4000
4000
4000
4000
E000
ENDCHAR
STARTCHAR uni1E57
ENCODING 7767
SWIDTH 574 0
DWIDTH 7 0
BBX 8 13 -2 -3
BITMAP
08
08
00
36
19
11
21
21
32
2C
40
40
E0
ENDCHAR
STARTCHAR uni1E58
ENCODING 7768
SWIDTH 741 0
DWIDTH 11 0
BBX 9 14 0 0
BITMAP
0800
0800
0000
7E00
2100
2100
2100
2200
3C00
4400
4200
4200
4280
E100
ENDCHAR
STARTCHAR uni1E59
ENCODING 7769
SWIDTH 444 0
DWIDTH 7 0
BBX 6 10 0 0
BITMAP
10
10
00
CC
54
60
40
80
80
80
ENDCHAR
STARTCHAR uni1E5A
ENCODING 7770
SWIDTH 741 0
DWIDTH 11 0
BBX 9 14 0 -3
BITMAP
7E00
2100
2100
2100
2200
3C00
4400
4200
4200
4280
E100
0000
0800
0800
ENDCHAR
STARTCHAR uni1E5B
ENCODING 7771
SWIDTH 444 0
DWIDTH 7 0
BBX 6 10 0 -3
BITMAP
CC
54
60
40
80
80
80
00
40
40
ENDCHAR
STARTCHAR uni1E5C
ENCODING 7772
SWIDTH 741 0
DWIDTH 11 0
BBX 9 16 0 -3
BITMAP
3E00
0000
7E00
2100
2100
2100
2200
3C00
4400
4200
4200
4280
E100
0000
0800
0800
ENDCHAR
STARTCHAR uni1E5D
ENCODING 7773
SWIDTH 444 0
DWIDTH 7 0
BBX 6 12 0 -3
BITMAP
F8
00
CC
54
60
40
80
80
80
00
40
40
ENDCHAR
STARTCHAR uni1E5E
ENCODING 7774
SWIDTH 741 0
DWIDTH 11 0
BBX 9 13 0 -2
BITMAP
7E00
2100
2100
2100
2200
3C00
4400
4200
4200
4280
E100
0000
3E00
ENDCHAR
STARTCHAR uni1E5F
ENCODING 7775
SWIDTH 444 0
DWIDTH 7 0
BBX 7 9 -1 -2
BITMAP
66
2A
30
20
40
40
40
00
F8
ENDCHAR
STARTCHAR uni1E60
ENCODING 7776
SWIDTH 667 0
DWIDTH 10 0
BBX 9 14 0 0
BITMAP
0400
0400
0000
1E80
2180
4080
6000
3800
0E00
0300
0100
8100
C200
BC00
ENDCHAR
STARTCHAR uni1E61
ENCODING 7777
SWIDTH 444 0
DWIDTH 7 0
BBX 6 10 0 0
BITMAP
10
10
00
3C
44
40
30
08
88
F0
ENDCHAR
STARTCHAR uni1E62
ENCODING 7778
SWIDTH 667 0
DWIDTH 10 0
BBX 9 14 0 -3
BITMAP
1E80
2180
4080
6000
3800
0E00
0300
0100
8100
C200
BC00
0000
1000
1000
ENDCHAR
STARTCHAR uni1E63
ENCODING 7779
SWIDTH 444 0
DWIDTH 7 0
BBX 6 10 0 -3
BITMAP
3C
44
40
30
08
88
F0
00
20
20
ENDCHAR
STARTCHAR uni1E64
ENCODING 7780
SWIDTH 667 0
DWIDTH 10 0
BBX 9 18 0 0
BITMAP
0400
0400
0000
0200
0400
0800
0000
1E80
2180
4080
6000
3800
0E00
0300
0100
8100
C200
BC00
ENDCHAR
STARTCHAR uni1E65
ENCODING 7781
SWIDTH 444 0
DWIDTH 7 0
BBX 6 14 0 0
BITMAP
08
08
00
04
08
10
00
3C
44
40
30
08
88
F0
ENDCHAR
STARTCHAR uni1E66
ENCODING 7782
SWIDTH 667 0
DWIDTH 10 0
BBX 9 17 0 0
BITMAP
0400
0400
0000
0900
0600
0000
1E80
2180
4080
6000
3800
0E00
0300
0100
8100
C200
BC00
ENDCHAR
STARTCHAR uni1E67
ENCODING 7783
SWIDTH 444 0
DWIDTH 7 0
BBX 6 14 0 0
BITMAP
10
10
00
44
28
10
00
3C
44
40
30
08
88
F0
ENDCHAR
STARTCHAR uni1E68
ENCODING 7784
SWIDTH 667 0
DWIDTH 10 0
BBX 9 17 0 -3
BITMAP
0800
0800
0000
1E80
2180
4080
6000
3800
0E00
0300
0100
8100
C200
BC00
0000
1000
1000
ENDCHAR
STARTCHAR uni1E69
ENCODING 7785
SWIDTH 444 0
DWIDTH 7 0
BBX 6 13 0 -3
BITMAP
10
10
00
3C
44
40
30
08
88
F0
00
20
20
ENDCHAR
STARTCHAR uni1E6A
ENCODING 7786
SWIDTH 685 0
DWIDTH 10 0
BBX 9 14 0 0
BITMAP
0800
0800
0000
FF80
8880
8880
0800
0800
0800
1000
1000
1000
1000
3800
ENDCHAR
STARTCHAR uni1E6B
ENCODING 7787
SWIDTH 352 0
DWIDTH 5 0
BBX 5 12 0 0
BITMAP
20
20
00
20
20
F8
40
40
40
80
A0
C0
ENDCHAR
STARTCHAR uni1E6C
ENCODING 7788
SWIDTH 685 0
DWIDTH 10 0
BBX 9 14 0 -3
BITMAP
FF80
8880
8880
0800
0800
0800
1000
1000
1000
1000
3800
0000
1000
1000
ENDCHAR
STARTCHAR uni1E6D
ENCODING 7789
SWIDTH 352 0
DWIDTH 5 0
BBX 5 12 0 -3
BITMAP
20
20
F8
40
40
40
80
A0
C0
00
40
40
ENDCHAR
STARTCHAR uni1E6E
ENCODING 7790
SWIDTH 685 0
DWIDTH 10 0
BBX 9 13 0 -2
BITMAP
FF80
8880
8880
0800
0800
0800
1000
1000
1000
1000
3800
0000
7C00
ENDCHAR
STARTCHAR uni1E6F
ENCODING 7791
SWIDTH 352 0
DWIDTH 5 0
BBX 6 11 -1 -2
BITMAP
10
10
7C
20
20
20
40
50
60
00
F8
ENDCHAR
STARTCHAR uni1E70
ENCODING 7792
SWIDTH 685 0
DWIDTH 10 0
BBX 9 15 0 -4
BITMAP
FF80
8880
8880
0800
0800
0800
1000
1000
1000
1000
3800
0000
1000
2800
4400
ENDCHAR
STARTCHAR uni1E71
ENCODING 7793
SWIDTH 352 0
DWIDTH 5 0
BBX 6 13 -1 -4
BITMAP
10
10
7C
20
20
20
40
50
60
00
20
50
88
ENDCHAR
STARTCHAR uni1E72
ENCODING 7794
SWIDTH 815 0
DWIDTH 12 0
BBX 10 14 1 -3
BITMAP
E1C0
4080
4080
4080
4080
8100
8100
8100
8100
4200
3C00
0000
2400
2400
ENDCHAR
STARTCHAR uni1E73
ENCODING 7795
SWIDTH 611 0
DWIDTH 9 0
BBX 8 10 0 -3
BITMAP
C2
42
42
84
8C
95
66
00
24
24
ENDCHAR
STARTCHAR uni1E74
ENCODING 7796
SWIDTH 815 0
DWIDTH 12 0
BBX 10 14 1 -3
BITMAP
E1C0
4080
4080
4080
4080
8100
8100
8100
8100
4200
3C00
0000
3200
4C00
ENDCHAR
STARTCHAR uni1E75
ENCODING 7797
SWIDTH 611 0
DWIDTH 9 0
BBX 8 10 0 -3
BITMAP
C2
42
42
84
8C
95
66
00
32
4C
ENDCHAR
STARTCHAR uni1E76
ENCODING 7798
SWIDTH 815 0
DWIDTH 12 0
BBX 10 15 1 -4
BITMAP
E1C0
4080
4080
4080
4080
8100
8100
8100
8100
4200
3C00
0000
0800
1400
2200
ENDCHAR
STARTCHAR uni1E77
ENCODING 7799
SWIDTH 611 0
DWIDTH 9 0
BBX 8 11 0 -4
BITMAP
C2
42
42
84
8C
95
66
00
08
14
22
ENDCHAR
STARTCHAR uni1E78
ENCODING 7800
SWIDTH 815 0
DWIDTH 12 0
BBX 10 18 1 0
BITMAP
0200
0400
0800
0000
1900
2600
0000
E1C0
4080
4080
4080
4080
8100
8100
8100
8100
4200
3C00
ENDCHAR
STARTCHAR uni1E79
ENCODING 7801
SWIDTH 611 0
DWIDTH 9 0
BBX 8 14 0 0
BITMAP
04
08
10
00
32
4C
00
C2
42
42
84
8C
95
66
ENDCHAR
STARTCHAR uni1E7A
ENCODING 7802
SWIDTH 815 0
DWIDTH 12 0
BBX 10 16 1 0
BITMAP
1200
1200
0000
1F00
0000
E1C0
4080
4080
4080
4080
8100
8100
8100
8100
4200
3C00
ENDCHAR
STARTCHAR uni1E7B
ENCODING 7803
SWIDTH 611 0
DWIDTH 9 0
BBX 8 12 0 0
BITMAP
24
24
00
7C
00
C2
42
42
84
8C
95
66
ENDCHAR
STARTCHAR uni1E7C
ENCODING 7804
SWIDTH 704 0
DWIDTH 10 0
BBX 10 14 0 0
BITMAP
1900
2600
0000
E1C0
4080
4080
6100
2100
2200
3200
1400
1400
1800
1800
ENDCHAR
STARTCHAR uni1E7D
ENCODING 7805
SWIDTH 519 0
DWIDTH 7 0
BBX 6 10 0 0
BITMAP
64
98
00
CC
44
44
84
88
90
60
ENDCHAR
STARTCHAR uni1E7E
ENCODING 7806
SWIDTH 704 0
DWIDTH 10 0
BBX 10 14 0 -3
BITMAP
E1C0
4080
4080
6100
2100
2200
3200
1400
1400
1800
1800
0000
0800
0800
ENDCHAR
STARTCHAR uni1E7F
ENCODING 7807
SWIDTH 519 0
DWIDTH 7 0
BBX 6 10 0 -3
BITMAP
CC
44
44
84
88
90
60
00
20
20
ENDCHAR
STARTCHAR Wgrave
ENCODING 7808
SWIDTH 926 0
DWIDTH 13 0
BBX 13 15 0 0
BITMAP
0800
0400
0200
0000
E738
4210
4210
6310
2520
2520
2940
39C0
1080
1080
1080
ENDCHAR
STARTCHAR wgrave
ENCODING 7809
SWIDTH 778 0
DWIDTH 11 0
BBX 10 11 0 0
BITMAP
1000
0800
0400
0000
C4C0
4440
4440
8840
8880
9900
6600
ENDCHAR
STARTCHAR Wacute
ENCODING 7810
SWIDTH 926 0
DWIDTH 13 0
BBX 13 15 0 0
BITMAP
0080
0100
0200
0000
E738
4210
4210
6310
2520
2520
2940
39C0
1080
1080
1080
ENDCHAR
STARTCHAR wacute
ENCODING 7811
SWIDTH 778 0
DWIDTH 11 0
BBX 10 11 0 0
BITMAP
0200
0400
0800
0000
C4C0
4440
4440
8840
8880
9900
6600
ENDCHAR
STARTCHAR Wdieresis
ENCODING 7812
SWIDTH 926 0
DWIDTH 13 0
BBX 13 14 0 0
BITMAP
0480
0480
0000
E738
4210
4210
6310
2520
2520
2940
39C0
1080
1080
1080
ENDCHAR
STARTCHAR wdieresis
ENCODING 7813
SWIDTH 778 0
DWIDTH 11 0
BBX 10 10 0 0
BITMAP
1200
1200
0000
C4C0
4440
4440
8840
8880
9900
6600
ENDCHAR
STARTCHAR uni1E86
ENCODING 7814
SWIDTH 926 0
DWIDTH 13 0
BBX 13 14 0 0
BITMAP
0200
0200
0000
E738
4210
4210
6310
2520
2520
2940
39C0
1080
1080
1080
ENDCHAR
STARTCHAR uni1E87
ENCODING 7815
SWIDTH 778 0
DWIDTH 11 0
BBX 10 10 0 0
BITMAP
0400
0400
0000
C4C0
4440
4440
8840
8880
9900
6600
ENDCHAR
STARTCHAR uni1E88
ENCODING 7816
SWIDTH 926 0
DWIDTH 13 0
BBX 13 14 0 -3
BITMAP
E738
4210
4210
6310
2520
2520
2940
39C0
1080
1080
1080
0000
0200
0200
ENDCHAR
STARTCHAR uni1E89
ENCODING 7817
SWIDTH 778 0
DWIDTH 11 0
BBX 10 10 0 -3
BITMAP
C4C0
4440
4440
8840
8880
9900
6600
0000
0800
0800
ENDCHAR
STARTCHAR uni1E8A
ENCODING 7818
SWIDTH 704 0
DWIDTH 10 0
BBX 11 14 -1 0
BITMAP
0200
0200
0000
38E0
1840
0880
0D00
0600
0400
0E00
1200
2300
4100
E380
ENDCHAR
STARTCHAR uni1E8B
ENCODING 7819
SWIDTH 500 0
DWIDTH 8 0
BBX 9 10 -1 0
BITMAP
0400
0400
0000
3180
1200
0C00
0800
1800
2800
C600
ENDCHAR
STARTCHAR uni1E8C
ENCODING 7820
SWIDTH 704 0
DWIDTH 10 0
BBX 11 14 -1 0
BITMAP
0900
0900
0000
38E0
1840
0880
0D00
0600
0400
0E00
1200
2300
4100
E380
ENDCHAR
STARTCHAR uni1E8D
ENCODING 7821
SWIDTH 500 0
DWIDTH 8 0
BBX 9 10 -1 0
BITMAP
1200
1200
0000
3180
1200
0C00
0800
1800
2800
C600
ENDCHAR
STARTCHAR uni1E8E
ENCODING 7822
SWIDTH 685 0
DWIDTH 9 0
BBX 9 14 0 0
BITMAP
0800
0800
0000
E380
4100
6200
2400
3800
1000
1000
2000
2000
2000
7000
ENDCHAR
STARTCHAR uni1E8F
ENCODING 7823
SWIDTH 500 0
DWIDTH 7 0
BBX 7 13 -1 -3
BITMAP
10
10
00
C6
42
64
24
28
30
10
20
A0
C0
ENDCHAR
STARTCHAR uni1E90
ENCODING 7824
SWIDTH 667 0
DWIDTH 10 0
BBX 9 15 0 0
BITMAP
0800
1400
2200
0000
7F80
4100
4200
0400
0800
0800
1000
2000
4100
8100
FF00
ENDCHAR
STARTCHAR uni1E91
ENCODING 7825
SWIDTH 463 0
DWIDTH 8 0
BBX 7 11 0 0
BITMAP
10
28
44
00
72
4C
08
10
20
44
BC
ENDCHAR
STARTCHAR uni1E92
ENCODING 7826
SWIDTH 667 0
DWIDTH 10 0
BBX 9 14 0 -3
BITMAP
7F80
4100
4200
0400
0800
0800
1000
2000
4100
8100
FF00
0000
0800
0800
ENDCHAR
STARTCHAR uni1E93
ENCODING 7827
SWIDTH 463 0
DWIDTH 8 0
BBX 7 10 0 -3
BITMAP
72
4C
08
10
20
44
BC
00
10
10
ENDCHAR
STARTCHAR uni1E94
ENCODING 7828
SWIDTH 667 0
DWIDTH 10 0
BBX 9 13 0 -2
BITMAP
7F80
4100
4200
0400
0800
0800
1000
2000
4100
8100
FF00
0000
3E00
ENDCHAR
STARTCHAR uni1E95
ENCODING 7829
SWIDTH 463 0
DWIDTH 8 0
BBX 7 9 0 -2
BITMAP
72
4C
08
10
20
44
BC
00
7C
ENDCHAR
STARTCHAR uni1E96
ENCODING 7830
SWIDTH 611 0
DWIDTH 9 0
BBX 8 13 0 -2
BITMAP
60
20
20
20
4C
52
62
42
84
85
86
00
3E
ENDCHAR
STARTCHAR uni1E97
ENCODING 7831
SWIDTH 352 0
DWIDTH 5 0
BBX 5 12 0 0
BITMAP
48
48
00
20
20
F8
40
40
40
80
A0
C0
ENDCHAR
STARTCHAR uni1E98
ENCODING 7832
SWIDTH 778 0
DWIDTH 11 0
BBX 10 11 0 0
BITMAP
0C00
1200
0C00
0000
C4C0
4440
4440
8840
8880
9900
6600
ENDCHAR
STARTCHAR uni1E99
ENCODING 7833
SWIDTH 500 0
DWIDTH 7 0
BBX 7 14 -1 -3
BITMAP
18
24
18
00
C6
42
64
24
28
30
10
20
A0
C0
ENDCHAR
STARTCHAR uni1EA0
ENCODING 7840
SWIDTH 704 0
DWIDTH 11 0
BBX 10 14 0 -3
BITMAP
0400
0600
0A00
0A00
1300
1100
2100
3F80
4080
4080
E1C0
0000
0400
0400
ENDCHAR
STARTCHAR uni1EA1
ENCODING 7841
SWIDTH 574 0
DWIDTH 9 0
BBX 8 10 0 -3
BITMAP
3A
46
82
84
84
8D
76
00
08
08
ENDCHAR
STARTCHAR uni1EA4
ENCODING 7844
SWIDTH 704 0
DWIDTH 11 0
BBX 10 18 0 0
BITMAP
0100
0200
0400
0000
0600
0900
0000
0400
0600
0A00
0A00
1300
1100
2100
3F80
4080
4080
E1C0
ENDCHAR
STARTCHAR uni1EA5
ENCODING 7845
SWIDTH 574 0
DWIDTH 9 0
BBX 8 14 0 0
BITMAP
04
08
10
00
18
24
00
3A
46
82
84
84
8D
76
ENDCHAR
STARTCHAR uni1EA6
ENCODING 7846
SWIDTH 704 0
DWIDTH 11 0
BBX 10 18 0 0
BITMAP
1000
0800
0400
0000
0600
0900
0000
0400
0600
0A00
0A00
1300
1100
2100
3F80
4080
4080
E1C0
ENDCHAR
STARTCHAR uni1EA7
ENCODING 7847
SWIDTH 574 0
DWIDTH 9 0
BBX 8 14 0 0
BITMAP
20
10
08
00
18
24
00
3A
46
82
84
84
8D
76
ENDCHAR
STARTCHAR uni1EAA
ENCODING 7850
SWIDTH 704 0
DWIDTH 11 0
BBX 10 17 0 0
BITMAP
0C80
1300
0000
0600
0900
0000
0400
0600
0A00
0A00
1300
1100
2100
3F80
4080
4080
E1C0
ENDCHAR
STARTCHAR uni1EAB
ENCODING 7851
SWIDTH 574 0
DWIDTH 9 0
BBX 8 13 0 0
BITMAP
32
4C
00
18
24
00
3A
46
82
84
84
8D
76
ENDCHAR
STARTCHAR uni1EAC
ENCODING 7852
SWIDTH 704 0
DWIDTH 11 0
BBX 10 18 0 -3
BITMAP
0400
0A00
1100
0000
0400
0600
0A00
0A00
1300
1100
2100
3F80
4080
4080
E1C0
0000
0400
0400
ENDCHAR
STARTCHAR uni1EAD
ENCODING 7853
SWIDTH 574 0
DWIDTH 9 0
BBX 8 14 0 -3
BITMAP
08
14
22
00
3A
46
82
84
84
8D
76
00
08
08
ENDCHAR
STARTCHAR uni1EAE
ENCODING 7854
SWIDTH 704 0
DWIDTH 11 0
BBX 10 19 0 0
BITMAP
0200
0400
0800
0000
1200
1200
0C00
0000
0400
0600
0A00
0A00
1300
1100
2100
3F80
4080
4080
E1C0
ENDCHAR
STARTCHAR uni1EAF
ENCODING 7855
SWIDTH 574 0
DWIDTH 9 0
BBX 8 15 0 0
BITMAP
04
08
10
00
24
24
18
00
3A
46
82
84
84
8D
76
ENDCHAR
STARTCHAR uni1EB0
ENCODING 7856
SWIDTH 704 0
DWIDTH 11 0
BBX 10 19 0 0
BITMAP
1000
0800
0400
0000
1200
1200
0C00
0000
0400
0600
0A00
0A00
1300
1100
2100
3F80
4080
4080
E1C0
ENDCHAR
STARTCHAR uni1EB1
ENCODING 7857
SWIDTH 574 0
DWIDTH 9 0
BBX 8 15 0 0
BITMAP
20
10
08
00
24
24
18
00
3A
46
82
84
84
8D
76
ENDCHAR
STARTCHAR uni1EB4
ENCODING 7860
SWIDTH 704 0
DWIDTH 11 0
BBX 10 18 0 0
BITMAP
1900
2600
0000
1200
1200
0C00
0000
0400
0600
0A00
0A00
1300
1100
2100
3F80
4080
4080
E1C0
ENDCHAR
STARTCHAR uni1EB5
ENCODING 7861
SWIDTH 574 0
DWIDTH 9 0
BBX 8 14 0 0
BITMAP
32
4C
00
24
24
18
00
3A
46
82
84
84
8D
76
ENDCHAR
STARTCHAR uni1EB6
ENCODING 7862
SWIDTH 704 0
DWIDTH 11 0
BBX 10 18 0 -3
BITMAP
1200
1200
0C00
0000
0400
0600
0A00
0A00
1300
1100
2100
3F80
4080
4080
E1C0
0000
0400
0400
ENDCHAR
STARTCHAR uni1EB7
ENCODING 7863
SWIDTH 574 0
DWIDTH 9 0
BBX 8 14 0 -3
BITMAP
24
24
18
00
3A
46
82
84
84
8D
76
00
08
08
ENDCHAR
STARTCHAR uni1EB8
ENCODING 7864
SWIDTH 722 0
DWIDTH 9 0
BBX 8 14 0 -3
BITMAP
7F
21
21
20
24
3C
44
40
41
41
FF
00
08
08
ENDCHAR
STARTCHAR uni1EB9
ENCODING 7865
SWIDTH 444 0
DWIDTH 6 0
BBX 5 10 0 -3
BITMAP
38
48
90
E0
80
88
70
00
20
20
ENDCHAR
STARTCHAR uni1EBC
ENCODING 7868
SWIDTH 722 0
DWIDTH 9 0
BBX 8 14 0 0
BITMAP
19
26
00
7F
21
21
20
24
3C
44
40
41
41
FF
ENDCHAR
STARTCHAR uni1EBD
ENCODING 7869
SWIDTH 444 0
DWIDTH 6 0
BBX 6 10 0 0
BITMAP
64
98
00
38
48
90
E0
80
88
70
ENDCHAR
STARTCHAR uni1EBE
ENCODING 7870
SWIDTH 722 0
DWIDTH 9 0
BBX 8 18 0 0
BITMAP
02
04
08
00
0C
12
00
7F
21
21
20
24
3C
44
40
41
41
FF
ENDCHAR
STARTCHAR uni1EBF
ENCODING 7871
SWIDTH 444 0
DWIDTH 6 0
BBX 5 14 0 0
BITMAP
08
10
20
00
30
48
00
38
48
90
E0
80
88
70
ENDCHAR
STARTCHAR uni1EC0
ENCODING 7872
SWIDTH 722 0
DWIDTH 9 0
BBX 8 18 0 0
BITMAP
20
10
08
00
0C
12
00
7F
21
21
20
24
3C
44
40
41
41
FF
ENDCHAR
STARTCHAR uni1EC1
ENCODING 7873
SWIDTH 444 0
DWIDTH 6 0
BBX 5 14 0 0
BITMAP
40
20
10
00
30
48
00
38
48
90
E0
80
88
70
ENDCHAR
STARTCHAR uni1EC4
ENCODING 7876
SWIDTH 722 0
DWIDTH 9 0
BBX 8 17 0 0
BITMAP
19
26
00
0C
12
00
7F
21
21
20
24
3C
44
40
41
41
FF
ENDCHAR
STARTCHAR uni1EC5
ENCODING 7877
SWIDTH 444 0
DWIDTH 6 0
BBX 6 13 0 0
BITMAP
64
98
00
30
48
00
38
48
90
E0
80
88
70
ENDCHAR
STARTCHAR uni1EC6
ENCODING 7878
SWIDTH 722 0
DWIDTH 9 0
BBX 8 18 0 -3
BITMAP
08
14
22
00
7F
21
21
20
24
3C
44
40
41
41
FF
00
08
08
ENDCHAR
STARTCHAR uni1EC7
ENCODING 7879
SWIDTH 444 0
DWIDTH 6 0
BBX 5 14 0 -3
BITMAP
20
50
88
00
38
48
90
E0
80
88
70
00
20
20
ENDCHAR
STARTCHAR uni1ECA
ENCODING 7882
SWIDTH 407 0
DWIDTH 7 0
BBX 4 14 1 -3
BITMAP
70
20
20
20
20
20
40
40
40
40
E0
00
40
40
ENDCHAR
STARTCHAR uni1ECB
ENCODING 7883
SWIDTH 333 0
DWIDTH 4 0
BBX 3 14 0 -3
BITMAP
20
20
00
00
C0
40
40
80
80
A0
C0
00
40
40
ENDCHAR
STARTCHAR uni1ECC
ENCODING 7884
SWIDTH 778 0
DWIDTH 10 0
BBX 9 14 0 -3
BITMAP
1E00
2100
4080
4080
8080
8080
8080
8100
8100
4200
3C00
0000
0800
0800
ENDCHAR
STARTCHAR uni1ECD
ENCODING 7885
SWIDTH 500 0
DWIDTH 7 0
BBX 6 10 0 -3
BITMAP
38
44
84
84
84
88
70
00
20
20
ENDCHAR
STARTCHAR uni1ED0
ENCODING 7888
SWIDTH 778 0
DWIDTH 10 0
BBX 9 18 0 0
BITMAP
0200
0400
0800
0000
0C00
1200
0000
1E00
2100
4080
4080
8080
8080
8080
8100
8100
4200
3C00
ENDCHAR
STARTCHAR uni1ED1
ENCODING 7889
SWIDTH 500 0
DWIDTH 7 0
BBX 6 14 0 0
BITMAP
04
08
10
00
18
24
00
38
44
84
84
84
88
70
ENDCHAR
STARTCHAR uni1ED2
ENCODING 7890
SWIDTH 778 0
DWIDTH 10 0
BBX 9 18 0 0
BITMAP
1000
0800
0400
0000
0C00
1200
0000
1E00
2100
4080
4080
8080
8080
8080
8100
8100
4200
3C00
ENDCHAR
STARTCHAR uni1ED3
ENCODING 7891
SWIDTH 500 0
DWIDTH 7 0
BBX 6 14 0 0
BITMAP
20
10
08
00
18
24
00
38
44
84
84
84
88
70
ENDCHAR
STARTCHAR uni1ED6
ENCODING 7894
SWIDTH 778 0
DWIDTH 10 0
BBX 9 17 0 0
BITMAP
1900
2600
0000
0C00
1200
0000
1E00
2100
4080
4080
8080
8080
8080
8100
8100
4200
3C00
ENDCHAR
STARTCHAR uni1ED7
ENCODING 7895
SWIDTH 500 0
DWIDTH 7 0
BBX 7 13 0 0
BITMAP
32
4C
00
18
24
00
38
44
84
84
84
88
70
ENDCHAR
STARTCHAR uni1ED8
ENCODING 7896
SWIDTH 778 0
DWIDTH 10 0
BBX 9 18 0 -3
BITMAP
0800
1400
2200
0000
1E00
2100
4080
4080
8080
8080
8080
8100
8100
4200
3C00
0000
0800
0800
ENDCHAR
STARTCHAR uni1ED9
ENCODING 7897
SWIDTH 500 0
DWIDTH 7 0
BBX 6 14 0 -3
BITMAP
10
28
44
00
38
44
84
84
84
88
70
00
20
20
ENDCHAR
STARTCHAR uni1EDA
ENCODING 7898
SWIDTH 778 0
DWIDTH 10 0
BBX 11 15 0 0
BITMAP
0100
0200
0400
0000
1E60
2120
40C0
4080
8080
8080
8080
8100
8100
4200
3C00
ENDCHAR
STARTCHAR uni1EDB
ENCODING 7899
SWIDTH 500 0
DWIDTH 7 0
BBX 9 11 0 0
BITMAP
0200
0400
0800
0000
3980
4480
8500
8600
8400
8800
7000
ENDCHAR
STARTCHAR uni1EDC
ENCODING 7900
SWIDTH 778 0
DWIDTH 10 0
BBX 11 15 0 0
BITMAP
0800
0400
0200
0000
1E60
2120
40C0
4080
8080
8080
8080
8100
8100
4200
3C00
ENDCHAR
STARTCHAR uni1EDD
ENCODING 7901
SWIDTH 500 0
DWIDTH 7 0
BBX 9 11 0 0
BITMAP
1000
0800
0400
0000
3980
4480
8500
8600
8400
8800
7000
ENDCHAR
STARTCHAR uni1EE0
ENCODING 7904
SWIDTH 778 0
DWIDTH 10 0
BBX 11 14 0 0
BITMAP
0C80
1300
0000
1E60
2120
40C0
4080
8080
8080
8080
8100
8100
4200
3C00
ENDCHAR
STARTCHAR uni1EE1
ENCODING 7905
SWIDTH 500 0
DWIDTH 7 0
BBX 9 10 0 0
BITMAP
1900
2600
0000
3980
4480
8500
8600
8400
8800
7000
ENDCHAR
STARTCHAR uni1EE2
ENCODING 7906
SWIDTH 778 0
DWIDTH 10 0
BBX 11 14 0 -3
BITMAP
1E60
2120
40C0
4080
8080
8080
8080
8100
8100
4200
3C00
0000
0800
0800
ENDCHAR
STARTCHAR uni1EE3
ENCODING 7907
SWIDTH 500 0
DWIDTH 7 0
BBX 9 10 0 -3
BITMAP
3980
4480
8500
8600
8400
8800
7000
0000
1000
1000
ENDCHAR
STARTCHAR uni1EE4
ENCODING 7908
SWIDTH 815 0
DWIDTH 12 0
BBX 10 14 1 -3
BITMAP
E1C0
4080
4080
4080
4080
8100
8100
8100
8100
4200
3C00
0000
0800
0800
ENDCHAR
STARTCHAR uni1EE5
ENCODING 7909
SWIDTH 611 0
DWIDTH 9 0
BBX 8 10 0 -3
BITMAP
C2
42
42
84
8C
95
66
00
08
08
ENDCHAR
STARTCHAR uni1EE8
ENCODING 7912
SWIDTH 815 0
DWIDTH 12 0
BBX 12 15 1 0
BITMAP
0080
0100
0200
0000
E1F0
4090
40A0
40C0
4080
8100
8100
8100
8100
4200
3C00
ENDCHAR
STARTCHAR uni1EE9
ENCODING 7913
SWIDTH 611 0
DWIDTH 9 0
BBX 11 11 0 0
BITMAP
0100
0200
0400
0000
C260
4220
4240
8480
8C00
9500
6600
ENDCHAR
STARTCHAR uni1EEA
ENCODING 7914
SWIDTH 815 0
DWIDTH 12 0
BBX 12 15 1 0
BITMAP
0800
0400
0200
0000
E1F0
4090
40A0
40C0
4080
8100
8100
8100
8100
4200
3C00
ENDCHAR
STARTCHAR uni1EEB
ENCODING 7915
SWIDTH 611 0
DWIDTH 9 0
BBX 11 11 0 0
BITMAP
0800
0400
0200
0000
C260
4220
4240
8480
8C00
9500
6600
ENDCHAR
STARTCHAR uni1EEE
ENCODING 7918
SWIDTH 815 0
DWIDTH 12 0
BBX 12 14 1 0
BITMAP
0640
0980
0000
E1F0
4090
40A0
40C0
4080
8100
8100
8100
8100
4200
3C00
ENDCHAR
STARTCHAR uni1EEF
ENCODING 7919
SWIDTH 611 0
DWIDTH 9 0
BBX 11 10 0 0
BITMAP
0C80
1300
0000
C260
4220
4240
8480
8C00
9500
6600
ENDCHAR
STARTCHAR uni1EF0
ENCODING 7920
SWIDTH 815 0
DWIDTH 12 0
BBX 12 14 1 -3
BITMAP
E1F0
4090
40A0
40C0
4080
8100
8100
8100
8100
4200
3C00
0000
0800
0800
ENDCHAR
STARTCHAR uni1EF1
ENCODING 7921
SWIDTH 611 0
DWIDTH 9 0
BBX 11 10 0 -3
BITMAP
C260
4220
4240
8480
8C00
9500
6600
0000
0800
0800
ENDCHAR
STARTCHAR Ygrave
ENCODING 7922
SWIDTH 685 0
DWIDTH 9 0
BBX 9 15 0 0
BITMAP
2000
1000
0800
0000
E380
4100
6200
2400
3800
1000
1000
2000
2000
2000
7000
ENDCHAR
STARTCHAR ygrave
ENCODING 7923
SWIDTH 500 0
DWIDTH 7 0
BBX 7 14 -1 -3
BITMAP
40
20
10
00
C6
42
64
24
28
30
10
20
A0
C0
ENDCHAR
STARTCHAR uni1EF4
ENCODING 7924
SWIDTH 685 0
DWIDTH 9 0
BBX 9 14 0 -3
BITMAP
E380
4100
6200
2400
3800
1000
1000
2000
2000
2000
7000
0000
1000
1000
ENDCHAR
STARTCHAR uni1EF5
ENCODING 7925
SWIDTH 500 0
DWIDTH 7 0
BBX 7 13 -1 -6
BITMAP
C6
42
64
24
28
30
10
20
A0
C0
00
20
20
ENDCHAR
STARTCHAR uni1EF8
ENCODING 7928
SWIDTH 685 0
DWIDTH 9 0
BBX 9 14 0 0
BITMAP
3200
4C00
0000
E380
4100
6200
2400
3800
1000
1000
2000
2000
2000
7000
ENDCHAR
STARTCHAR uni1EF9
ENCODING 7929
SWIDTH 500 0
DWIDTH 7 0
BBX 7 13 -1 -3
BITMAP
32
4C
00
C6
42
64
24
28
30
10
20
A0
C0
ENDCHAR
STARTCHAR uni2000
ENCODING 8192
SWIDTH 500 0
DWIDTH 7 0
BBX 1 1 0 0
BITMAP
00
ENDCHAR
STARTCHAR uni2001
ENCODING 8193
SWIDTH 1000 0
DWIDTH 15 0
BBX 1 1 0 0
BITMAP
00
ENDCHAR
STARTCHAR uni2002
ENCODING 8194
SWIDTH 500 0
DWIDTH 7 0
BBX 1 1 0 0
BITMAP
00
ENDCHAR
STARTCHAR uni2003
ENCODING 8195
SWIDTH 1000 0
DWIDTH 15 0
BBX 1 1 0 0
BITMAP
00
ENDCHAR
STARTCHAR uni2004
ENCODING 8196
SWIDTH 333 0
DWIDTH 5 0
BBX 1 1 0 0
BITMAP
00
ENDCHAR
STARTCHAR uni2005
ENCODING 8197
SWIDTH 250 0
DWIDTH 4 0
BBX 1 1 0 0
BITMAP
00
ENDCHAR
STARTCHAR uni2006
ENCODING 8198
SWIDTH 167 0
DWIDTH 2 0
BBX 1 1 0 0
BITMAP
00
ENDCHAR
STARTCHAR uni2007
ENCODING 8199
SWIDTH 556 0
DWIDTH 8 0
BBX 1 1 0 0
BITMAP
00
ENDCHAR
STARTCHAR uni2008
ENCODING 8200
SWIDTH 278 0
DWIDTH 4 0
BBX 1 1 0 0
BITMAP
00
ENDCHAR
STARTCHAR uni2009
ENCODING 8201
SWIDTH 200 0
DWIDTH 3 0
BBX 1 1 0 0
BITMAP
00
ENDCHAR
STARTCHAR uni200A
ENCODING 8202
SWIDTH 100 0
DWIDTH 1 0
BBX 1 1 0 0
BITMAP
00
ENDCHAR
STARTCHAR uni200B
ENCODING 8203
SWIDTH 0 0
DWIDTH 0 0
BBX 1 1 0 0
BITMAP
00
ENDCHAR
STARTCHAR uni2010
ENCODING 8208
SWIDTH 333 0
DWIDTH 4 0
BBX 3 1 0 4
BITMAP
E0
ENDCHAR
STARTCHAR uni2011
ENCODING 8209
SWIDTH 333 0
DWIDTH 4 0
BBX 3 1 0 4
BITMAP
E0
ENDCHAR
STARTCHAR figuredash
ENCODING 8210
SWIDTH 500 0
DWIDTH 9 0
BBX 8 1 0 4
BITMAP
FF
ENDCHAR
STARTCHAR endash
ENCODING 8211
SWIDTH 500 0
DWIDTH 9 0
BBX 8 1 0 4
BITMAP
FF
ENDCHAR
STARTCHAR emdash
ENCODING 8212
SWIDTH 1000 0
DWIDTH 15 0
BBX 14 1 0 4
BITMAP
FFFC
ENDCHAR
STARTCHAR afii00208
ENCODING 8213
SWIDTH 1000 0
DWIDTH 15 0
BBX 14 1 0 4
BITMAP
FFFC
ENDCHAR
STARTCHAR quoteleft
ENCODING 8216
SWIDTH 204 0
DWIDTH 4 0
BBX 3 4 1 7
BITMAP
20
40
80
C0
ENDCHAR
STARTCHAR quoteright
ENCODING 8217
SWIDTH 204 0
DWIDTH 4 0
BBX 3 4 0 7
BITMAP
60
20
40
80
ENDCHAR
STARTCHAR quotesinglbase
ENCODING 8218
SWIDTH 204 0
DWIDTH 4 0
BBX 3 4 -1 -2
BITMAP
60
20
40
80
ENDCHAR
STARTCHAR quotereversed
ENCODING 8219
SWIDTH 204 0
DWIDTH 4 0
BBX 3 4 0 7
BITMAP
C0
80
40
20
ENDCHAR
STARTCHAR quotedblleft
ENCODING 8220
SWIDTH 389 0
DWIDTH 7 0
BBX 6 4 0 7
BITMAP
24
48
90
D8
ENDCHAR
STARTCHAR quotedblright
ENCODING 8221
SWIDTH 389 0
DWIDTH 7 0
BBX 6 4 0 7
BITMAP
6C
24
48
90
ENDCHAR
STARTCHAR quotedblbase
ENCODING 8222
SWIDTH 389 0
DWIDTH 7 0
BBX 6 4 -1 -2
BITMAP
6C
24
48
90
ENDCHAR
STARTCHAR uni201F
ENCODING 8223
SWIDTH 389 0
DWIDTH 7 0
BBX 6 4 0 7
BITMAP
D8
90
48
24
ENDCHAR
STARTCHAR dagger
ENCODING 8224
SWIDTH 500 0
DWIDTH 7 0
BBX 6 13 0 -2
BITMAP
10
10
10
FC
20
20
20
20
40
40
40
40
40
ENDCHAR
STARTCHAR daggerdbl
ENCODING 8225
SWIDTH 500 0
DWIDTH 8 0
BBX 7 13 0 -2
BITMAP
08
08
08
7E
10
10
10
10
10
FC
20
20
20
ENDCHAR
STARTCHAR bullet
ENCODING 8226
SWIDTH 606 0
DWIDTH 10 0
BBX 5 5 2 3
BITMAP
70
F8
F8
F8
70
ENDCHAR
STARTCHAR ellipsis
ENCODING 8230
SWIDTH 1000 0
DWIDTH 12 0
BBX 9 2 1 0
BITMAP
8880
8880
ENDCHAR
STARTCHAR perthousand
ENCODING 8240
SWIDTH 1000 0
DWIDTH 18 0
BBX 17 12 0 -1
BITMAP
310000
490000
8A0000
8A0000
940000
64C300
092480
0A2880
122880
124900
218600
200000
ENDCHAR
STARTCHAR guilsinglleft
ENCODING 8249
SWIDTH 333 0
DWIDTH 5 0
BBX 4 6 0 1
BITMAP
10
20
40
80
40
20
ENDCHAR
STARTCHAR guilsinglright
ENCODING 8250
SWIDTH 333 0
DWIDTH 5 0
BBX 4 6 0 1
BITMAP
40
20
10
20
40
80
ENDCHAR
STARTCHAR fraction
ENCODING 8260
SWIDTH 167 0
DWIDTH 3 0
BBX 6 12 -2 -1
BITMAP
04
04
08
08
10
10
20
20
40
40
80
80
ENDCHAR
STARTCHAR oneinferior
ENCODING 8321
SWIDTH 333 0
DWIDTH 5 0
BBX 3 6 0 -3
BITMAP
20
60
20
40
40
E0
ENDCHAR
STARTCHAR twoinferior
ENCODING 8322
SWIDTH 333 0
DWIDTH 5 0
BBX 4 6 0 -3
BITMAP
70
90
20
40
80
F0
ENDCHAR
STARTCHAR threeinferior
ENCODING 8323
SWIDTH 333 0
DWIDTH 5 0
BBX 4 6 0 -3
BITMAP
70
90
20
10
90
E0
ENDCHAR
STARTCHAR uni20A5
ENCODING 8357
SWIDTH 889 0
DWIDTH 14 0
BBX 13 12 0 -2
BITMAP
0080
0080
0080
CD60
5390
6310
4210
8620
8628
8430
0400
0400
ENDCHAR
STARTCHAR uni20A6
ENCODING 8358
SWIDTH 815 0
DWIDTH 12 0
BBX 11 11 0 0
BITMAP
70E0
3040
3840
3FC0
2C40
2480
7F80
4280
4380
4180
E080
ENDCHAR
STARTCHAR uni20A9
ENCODING 8361
SWIDTH 926 0
DWIDTH 13 0
BBX 13 11 0 0
BITMAP
E738
4210
4210
7FD0
2520
2520
3FC0
39C0
1080
1080
1080
ENDCHAR
STARTCHAR Euro
ENCODING 8364
SWIDTH 722 0
DWIDTH 10 0
BBX 10 11 -1 0
BITMAP
0F40
10C0
2040
FE00
4000
4000
FE00
4000
4080
2100
1E00
ENDCHAR
STARTCHAR uni20AD
ENCODING 8365
SWIDTH 741 0
DWIDTH 10 0
BBX 9 11 0 0
BITMAP
7380
2100
2200
2400
2800
FF80
4C00
4400
4600
4200
E700
ENDCHAR
STARTCHAR uni2103
ENCODING 8451
SWIDTH 1102 0
DWIDTH 16 0
BBX 14 11 1 0
BITMAP
60F4
910C
9204
6200
0400
0400
0400
0400
0408
0210
01E0
ENDCHAR
STARTCHAR uni2109
ENCODING 8457
SWIDTH 1047 0
DWIDTH 14 0
BBX 13 11 1 0
BITMAP
63F8
9108
9108
6100
0120
01E0
0220
0200
0200
0200
0700
ENDCHAR
STARTCHAR trademark
ENCODING 8482
SWIDTH 950 0
DWIDTH 16 0
BBX 15 6 0 5
BITMAP
FB8E
A98C
2154
2154
2124
7326
ENDCHAR
STARTCHAR uni212A
ENCODING 8490
SWIDTH 741 0
DWIDTH 10 0
BBX 9 11 0 0
BITMAP
7380
2100
2200
2400
2800
3800
4C00
4400
4600
4200
E700
ENDCHAR
STARTCHAR uni212B
ENCODING 8491
SWIDTH 704 0
DWIDTH 11 0
BBX 10 14 0 0
BITMAP
0600
0900
0600
0400
0600
0A00
0A00
1300
1100
2100
3F80
4080
4080
E1C0
ENDCHAR
STARTCHAR uni2132
ENCODING 8498
SWIDTH 667 0
DWIDTH 8 0
BBX 8 11 0 0
BITMAP
07
02
02
02
22
3C
24
04
84
84
FE
ENDCHAR
STARTCHAR minus
ENCODING 8722
SWIDTH 606 0
DWIDTH 9 0
BBX 7 1 1 4
BITMAP
FE
ENDCHAR
STARTCHAR fraction
ENCODING 8725
SWIDTH 167 0
DWIDTH 3 0
BBX 6 12 -2 -1
BITMAP
04
04
08
08
10
10
20
20
40
40
80
80
ENDCHAR
STARTCHAR periodcentered
ENCODING 8729
SWIDTH 278 0
DWIDTH 5 0
BBX 2 2 1 4
BITMAP
C0
C0
ENDCHAR
STARTCHAR uni2236
ENCODING 8758
SWIDTH 278 0
DWIDTH 4 0
BBX 2 7 1 0
BITMAP
40
40
00
00
00
80
80
ENDCHAR
STARTCHAR uni2259
ENCODING 8793
SWIDTH 606 0
DWIDTH 8 0
BBX 7 8 0 2
BITMAP
10
28
44
00
FE
00
00
FE
ENDCHAR
STARTCHAR uni225A
ENCODING 8794
SWIDTH 606 0
DWIDTH 8 0
BBX 7 8 0 2
BITMAP
44
28
10
00
FE
00
00
FE
ENDCHAR
STARTCHAR notequal
ENCODING 8800
SWIDTH 606 0
DWIDTH 8 0
BBX 7 12 0 -2
BITMAP
04
04
04
08
FE
08
10
FE
10
20
20
20
ENDCHAR
STARTCHAR equivalence
ENCODING 8801
SWIDTH 606 0
DWIDTH 8 0
BBX 7 5 0 2
BITMAP
FE
00
FE
00
FE
ENDCHAR
STARTCHAR uni2262
ENCODING 8802
SWIDTH 606 0
DWIDTH 8 0
BBX 7 12 0 -1
BITMAP
04
04
04
08
FE
08
FE
10
FE
20
20
20
ENDCHAR
STARTCHAR lessequal
ENCODING 8804
SWIDTH 606 0
DWIDTH 9 0
BBX 8 9 0 -1
BITMAP
03
0C
30
C0
30
0C
03
00
FF
ENDCHAR
STARTCHAR greaterequal
ENCODING 8805
SWIDTH 606 0
DWIDTH 9 0
BBX 8 9 0 -1
BITMAP
C0
30
0C
03
0C
30
C0
00
FF
ENDCHAR
STARTCHAR uni226E
ENCODING 8814
SWIDTH 606 0
DWIDTH 9 0
BBX 8 12 0 -1
BITMAP
04
04
04
0B
0C
38
D0
30
1C
23
20
20
ENDCHAR
STARTCHAR uni226F
ENCODING 8815
SWIDTH 606 0
DWIDTH 9 0
BBX 8 12 0 -1
BITMAP
04
04
04
C8
38
0C
13
1C
30
E0
20
20
ENDCHAR
STARTCHAR uni2270
ENCODING 8816
SWIDTH 606 0
DWIDTH 9 0
BBX 8 12 0 -2
BITMAP
04
04
07
0C
38
C8
30
1C
13
20
FF
20
ENDCHAR
STARTCHAR uni2271
ENCODING 8817
SWIDTH 606 0
DWIDTH 9 0
BBX 8 12 0 -2
BITMAP
04
04
C4
38
0C
0B
1C
30
D0
20
FF
20
ENDCHAR
STARTCHAR fi
ENCODING -1
SWIDTH 611 0
DWIDTH 8 0
BBX 7 14 0 -3
BITMAP
0E
12
20
20
FC
44
44
44
48
8A
8C
80
80
80
ENDCHAR
STARTCHAR fl
ENCODING -1
SWIDTH 611 0
DWIDTH 8 0
BBX 7 14 0 -3
BITMAP
0E
12
22
22
F4
44
44
48
48
8A
8C
80
80
80
ENDCHAR
ENDFONT
